<svg xmlns="http://www.w3.org/2000/svg" width="200" height="200" viewBox="0 0 200 200" preserveAspectRatio="xMidYMax meet"><path fill="#8DCF83" d="M57 150.9c-.8-.4-4.1-.6-4.4-2.1-.1-.7-3.2-1.7-5.1-1.7 0 0-4.6 4.2.5 7.9 0 0-1.5-.4-1.8 1.5s3 3.9 3 3.9l2 3.7c1.3.8 3 7.5 3 7.5l8.6-5.5c-3.1-.8-4.2-4-4.9-5.6-.2-.4-.1-.9.2-1.3l1.1-1.1c.8-.9.3-1.9-.7-2.9-.3-.2-.3-.7-.5-1.1-.1-.3-.9.3-.9.3s.7-1.4.4-1.4c-.2 0-.5-.2-.6-.6.1-.5.7-1.2.1-1.5"/><path fill="#114A1A" d="M49.4 159.4c-1.1-.4-3.3-1.3-3.1-2.8.2-1.1 1.1-1.4 1.9-1.5.4-.1.5-.5.2-.8-3.7-3.5-.9-7.1-.9-7.2 0 0-3.9-.8-6.7 2.7-.8 1-1.3 2-1.6 3-.3-.6-.8-1.1-1.5-1.4-.8-.3-1.8-.1-2.5.4-1.4 1.1-1.4 3.2-.1 4.3 1.2.9 2.8.8 3.8-.4.2 2.7 1.7 5 3.2 6 3.6 2.4 9.2 2.5 9.2 2.5l-1.2-4.1c-.1-.3-.4-.6-.7-.7zM47.5 147.1zM139 165.6c-8.4-9.3-12.2-13.9-22.4-3.4s-19.9 17.2-19.9 17.2l-4.6.3c-4.6-2.8-10.2-6.4-10.2-6.4s.1-2.6-1.2-4.4c-1.3-1.9-3-3.3-7.3-2.8-2.1.2-12.6 0-13.1 0-2.1 0-4.2 1.1-5.5 3-2.3 3.2-.7 6.9 1.7 10.1 4.7 6 21.2 12.3 31.8 17.1 4.5 1.9 8.6 3.7 12.6 3.8 7.4.1 11.1-3.2 13.1-6.4s15.5-23.4 15.5-23.4.5 3.6 8 9.2c2.5 1.9 6.5 4.7 12.6 8.9l4.6-2.8-15.7-20z"/><path fill="#8DCF83" d="M114.9 137.4c-.9 0-3.5 1.5-3.5 1.5l-9.5 4.8-21.7 14c-.5.4-15.7 8.3-17.4 9-1.2.5-2.2 1.1-3.1 1.6-1.3.3-2.4 1.1-3.3 2.2-1.9 2.6-1.3 6.3 1.3 8.2 2.6 1.9 6.3 1.3 8.2-1.3.1-.1.1-.1.1-.2 4.1-2.4 16.2-12.4 19-14.9 2.8-2.4 17.6-15.2 18.9-15.9 1.3-.6 4.3-1.4 5.6-2.8 1.2-1.4 6.2-6.2 5.4-6.2zm39.6 48.1l4.6 5.3-5.8 3.2-3.4-5.7 4.6-2.8z"/><path fill="#114A1A" d="M170.9 200c6.3-.7 3.8-4.2 1-4.1-.9 0-5.2-.3-8.3-2.8-1.5-1.2-3.3-3.9-5.2-3.9-1.9 0-.8 2.1-3.4 2.1-2.1 0-2.8-1.5-4-1.5-1.7 0-2.3 7.2.6 10.2h4.9s2.2-1.5 7.1 0h7.3z"/></svg>