<svg xmlns="http://www.w3.org/2000/svg" width="200" height="200" viewBox="0 0 200 200" preserveAspectRatio="xMidYMax meet"><path fill="#8DCF83" d="M75.7 142.6c-.1.3-.1.6-.2.9-.7 2.6-2.1 3.5-3.9 6.7-2.1 3.6-1.8 4.3-4.3 8.1-2.8 3.7-5.3 8.9-6.5 13.3-1.4 5.4-2.6 9.8-3.5 13.4-.4 1.6-.7 3.1-1 4.4.4-1.1 1.5-1.9 2.7-1.8 1.1.1 1.9.8 2.2 1.7.2-.3.5-.8.8-1.2 2.5-3.7 7.3-10.8 9.4-14.4 1.2-2.1 3.3-5.9 4.6-9.6 2.2-3.2 3.9-4.6 4.8-6.5.9-1.9 1.8-4.8 5.1-8.2 1.8-1.7 3.7-3.8 5.5-6.1l-14.9-.7h-.8zm-2.5-81c.7 2.2 1.7 4.5 3.2 7.1.9 1.5 1.7 3.7 2.5 5.6.2.7.5 1.5.8 2.2 0 .1.1.2.2.3 1.7 3.6 4.7 7.3 5.9 8.8 0 .2.2.5.2.7l-.1-.6L87.6 69l-.1-1.5c-.6-.1-1.5-.1-2.5-.1 0 0-1-4.7-3.8-10.8-.4-.8-.7-1.5-1.1-2.2l-2.5-6.7c.9-1.1 1.9-2.5 2.8-4.4 2.1-4.7 4.2-9.9 5.7-13.6 1.3-3.2 4.1-4.3 4.1-4.3.4-.1.8-.2 1.2-.4.9-.4 2-.8 4.5-1.7L97 23c.3-.1.5-.5.4-.8-.1-.3-.5-.5-.8-.4l-2.4.7c-1.8.4-1.5-.9-1.5-1.2l4.3-7.2c.2-.3.1-.7-.2-.9-.3-.2-.7-.1-.9.2l-3.1 5.1-.3-.6 3.1-5.2c.2-.3.1-.7-.2-.9-.3-.2-.7-.1-.9.2l-2.9 4.9c-.2-.1-.3-.2-.5-.3l2.7-4.5c.2-.3.1-.7-.2-.9-.3-.2-.7-.1-.9.2l-2.9 4.9h-.7l2.1-3.5c.2-.3.1-.7-.2-.9-.3-.2-.7-.1-.9.2l-2.8 4.6c-.3.5-1.9 3.6-1.7 5.4-.2 1.7-.7 1.3-1.7 3.6-2 2.1-6.4 8.4-8.3 11.5-1.8 2.9-5 9.1-4.2 11.9h-.1c.1 0-1.2 5.4 1.9 12.5m37 6.8v-.6c-.8-.4-1.6-.8-2.3-1.1-1.6-.8-2.5-1.7-2.8-2V63c.9-1 1.5-2.3 1.6-3.6.1 0 .1.1.2.1 1.4-.3 1.7-3.8 1.4-4.9-.3-1.1-.8 0-.8 0s.1.1 0 .3c0 .7-.4 1.4-.4 2V54c-1-1.5-2.2-4-4.6-4h-1.2l2.5.8c-2.4.7-4.1-.8-5.2-.8H98c-2.4 0-2.9 3.3-3.9 4v2.9c-1-.7-1-1.5-1-2.3 0-.1-.6-1-.8 0-.3 1.1 0 4.7 1.4 4.9h.1c.2 1.4.9 3 2 4l-.1 1s-.9 1-3 2.1c-.7.4-1.5.8-2.3 1.1v.6c.1 1.1.3 2.2.6 3.2 1.5 4.4 5.3 8 9.4 8 4.1 0 7.9-3.7 9.4-8 .1-.9.4-2 .4-3.1m34.3 121.7c0-1.8-.4-3.8-1-5.9-1-3.5-2.7-7.5-4-12.5-1.1-4.4-3.7-9.6-6.5-13.3-2.5-3.8-2.2-4.5-4.3-8.1-1.8-3.2-3.3-3.9-3.9-6.6 0-.3-.1-.6-.2-.6l-.9-.2-14.9.6c1.8 2.3 3.6 4.4 5.5 6.1 3.3 3.4 4.1 6.2 5.1 8.2.9 1.9 2.5 3.3 4.8 6.5 1.4 3.7 3.4 7.4 4.6 9.6 2.2 3.8 7.4 11.6 9.8 15l.6.9c.2-1.2 1.3-2.1 2.5-2.1 1.6-.2 2.8.9 2.8 2.4M103.4 22.9l1.1.3c2.5 1 3.6 1.4 4.5 1.7.4.2.9.3 1.2.4 0 0 2.7 1.1 4.1 4.4 1.5 3.6 3.6 8.9 5.7 13.5.9 1.9 1.8 3.4 2.8 4.4l-2.6 6.7c-.4.6-.8 1.3-1.2 2.2-2.9 6.1-4 10.8-4 10.8-1-.1-1.6 0-2.3.1l.2 1.5 1.8 16.7.1.6v-.7c1.2-1.5 4-5.2 5.7-8.8.1-.1.1-.2.2-.3.3-.8.6-1.5.8-2.2.8-2 1.6-4.1 2.5-5.6 1.5-2.6 2.5-4.9 3.1-7v-.1c3.2-7.1 1.8-12.5 1.8-12.5h-.1c.8-2.7-2.6-8.9-4.4-11.9-1.9-3.1-6.5-9.4-8.5-11.5-1-2.3-1.3-1.9-1.5-3.6.2-1.8-1.3-4.9-1.6-5.4l-2.7-4.6c-.2-.3-.6-.4-.9-.2-.3.2-.4.6-.2.9l2.1 3.5h-.7l-2.9-4.9c-.2-.3-.6-.4-.9-.2-.3.2-.4.6-.2.9l2.7 4.5c-.2.1-.3.2-.5.3l-2.9-4.9c-.2-.3-.6-.4-.9-.2-.3.2-.4.6-.2.9l3.1 5.2-.3.6-3.1-5.1c-.2-.3-.6-.4-.9-.2-.3.2-.4.6-.2.9l4.3 7.2c0 .2.2 1.6-1.5 1.2l-2.4-.7c-.3-.1-.7.1-.8.4 0 .4.2.7.6.8"/><path fill="#114A1A" d="M102 45h-3.3c-2.8 0-5.7 3-5.7 5.8v3.8c0 .8 0 1.6 1 2.3V54c1-.7 1.5-4 3.9-4h.6c1.1 0 2.8 1.5 5.2.8l-2.5-.8h1.2c2.4 0 3.6 2.5 4.6 4v2.9c0-.6.2-1.3.3-2 0-.1-.3-.2-.3-.3v-3.8c0-2.8-2.6-6-5.4-6M61.3 189.4c-.3-.9-1.2-1.7-2.2-1.7-1.3-.1-2.4.7-2.7 1.8.3-1.3.6-2.8 1-4.4-2.5 3.5-3.5 6.1-4.7 9.1-1.1 2.7-.8 5.7.1 5.8.6.1 1.4 0 2.2 0h6.1c1.5-1.2 1.1-7.9 1.1-11.8-.4.4-.7.8-.9 1.2m86.6 5.1c-1.1-3.2-3.6-7-4.3-10.3h-.1c.6 2.1 1 4.1 1 5.9 0-1.5-1.2-2.6-2.7-2.6-1.3 0-2.3.9-2.5 2.1l-.6-.9c-.3 4-.9 9.8.4 11h.8l3.8-.1c1.3 0 2.7-.1 3.7-.1s1.4-2.2.5-5"/><path fill="#114A1A" d="M118 122.7l-2.2-10.7-1.1-7.1.2-18.6h.1l-.2-.6-1.7-16.7-.1-1.5-2.6.3c0 .2-.1.4-.1.6-.1 1.1-.3 2.2-.7 3.2-1.5 4.4-5.3 8-9.4 8-4.1 0-7.9-3.7-9.4-8-.4-1-.6-2.1-.6-3.2 0-.2.1-.4.1-.6l-2.3-.3-.3 1.5L86 85.7l.1.6-.1 18.6-1.2 7.1-2.5 9.8s-3.7 9-7 20.9h1.4l14.9.7 3.7.2 4.7-8.6h.6l4.7 8.6 3.7-.2 14.9-.5.9.1.4-.2c-3.4-11.8-7.2-20.1-7.2-20.1z"/></svg>