<svg xmlns="http://www.w3.org/2000/svg" width="200" height="200" viewBox="0 0 200 200" preserveAspectRatio="xMidYMax meet"><path fill="#114A1A" d="M101 28h-2.6c-2.8 0-5.4 3.6-5.4 6.4v6.1-2.9c2-.7 2.2-4.6 4.6-4.6h.6c1.1 1 2.8 1.5 5.2.8l-2.5-.8h1.2c2.4 0 2.9 3.1 3.9 4.6v2.9c1-.6.7-1.3.8-2 0-.1.2-.2.2-.3v-3.8c0-2.8-3.1-6.3-5.9-6.3M87.3 186c-.2 1-.4 2.2-.4 2.2l-.6.6c-.5-.6-1.2-1-2-1-1 0-1.8.6-2.3 1.4l-.7-.9c.1-.8.2-1.7.2-2.6 0 3.8-2 6.2-3 9.4-.9 2.8-.4 5 .5 5h8.4c1.6-1.6-.3-10.6-.3-13.8v-.3h.2zm31-.4c0 .9.1 1.8.2 2.6l-.7.9c-.5-.8-1.3-1.4-2.3-1.4-.8 0-1.6.4-2 1l-.8-.6-.6-2c0 3.2-1.2 11.8.4 13.8h8.4c.9 0 1.4-2.2.5-5-1.1-3.1-3.1-5.5-3.1-9.3"/><path fill="#8DCF83" d="M75.8 111.5c1.3-2.4 3.6-10.2 4.5-13.9.7-2.9 1.7-8.4.9-11.4 1.8-1.8 3.9-6.1 4.4-12.8l.1 1v-.1l.3-3.2.9-10.3.4-5.4 2.4-1.3c-2.4 1.3-4.7 2.5-5 2.7 0 0-5 1-4.9 9.8 0 .4 0 .8.1 1.2-.9 1.8-2.4 5.4-2.9 9.9-.3 3.5-.2 6 .3 7.5-1.4 1.2-2.8 3.7-3.3 8-.8 7-1.3 15.2-1.6 18.2l-2.1 7 .5 12.9s1.1.1 1.5-2.6c.6-3.6.5-7.6.5-7.6l.9-2.2c.8-.1-.1 5.4 1.1 5.2 1.3-.2 1.3-5.8 1.1-8.1-.2-1.6-.1-3.4-.1-4.5M82 138h-.2v.1c.1.3.2.7.2 1 .4 2.7-.7 4.1-1.1 7.8-.5 4.1.1 4.7-.9 9.2-1 4.5-1.1 10.3-.4 14.8 1 6.6 1.9 11.1 1.8 14.8 0 .9 0 1.8-.2 2.6l.8.9c.5-.8 1.3-1.4 2.3-1.4.8 0 1.6.4 2.1 1l.6-.6s.2-.8.4-2c.8-4.1 2.6-13.3 3-17.7.3-2.4.7-6.7.4-10.6.8-3.8 1.7-5.8 1.8-7.9.1-2.1-.3-5.1 1.4-9.5.4-1 .8-2 1.2-3.1l-13.5.2c.1.2.2.3.3.4m27.9-84c-2.1-1.1-4.3-2.2-5.1-2.6l-.1-4.5c.9-1 1.5-2.5 1.6-3.8h.2c1.4-.3 1.7-3.9 1.4-5-.3-1.1-.9 0-.9 0l-.3.3c0 .7.3 1.4-.7 2v-2.9c-1-1.5-1.6-4.6-3.9-4.6h-1.2l2.5.8c-2.4.7-4.1.2-5.2-.8h-.6c-2.4 0-2.6 3.9-4.6 4.6v2.9-2.3c0-.1-.7-1-1 0-.3 1.1-.1 4.7 1.3 4.9.2 1.4.9 3 2 4l-.3 4.2c-.7.4-2.9 1.4-5.1 2.5 0 5.8 4.8 12.1 10 12.1S110 59.5 110 53.7m15.7 39.5c-.5-4.3-1.9-6.8-3.3-8 .5-1.5.7-4 .3-7.5-.4-4.5-1.9-8.1-2.9-9.9.1-.4.1-.8.1-1.2 0-8.8-4.9-9.8-4.9-9.8-.3-.2-2.6-1.4-5-2.7l2.4 1.3.4 5.4.9 10.3.3 3.2v.1c0-.3.1-.7.1-1 .4 6.7 2.6 11 4.4 12.8-.8 3 .2 8.5.9 11.4.9 3.7 3.2 11.5 4.5 13.9 0 1.1 0 2.9-.1 4.4-.2 2.4-.2 7.9 1.1 8.1 1.2.2.3-5.3 1.1-5.2l.9 2.2s-.1 4 .5 7.6c.4 2.6 1.5 2.6 1.5 2.6l.5-12.9-2.1-7c-.4-2.9-.8-11-1.6-18.1"/><path fill="#8DCF83" d="M119.2 156c-.8-4.4-.2-5-.6-9.2-.4-3.7-1.3-5.1-.9-7.7 0-.3.1-.7.2-1v-.1s.1-.3.1-.4l-13.5-.2c.4 1.1.8 2.1 1.2 3.1 1.7 4.4 1.3 7.4 1.4 9.6.1 2.1 1 3.9 1.8 7.9-.2 4 .2 8.1.4 10.6.5 4.4 2.2 13.6 3 17.7.2 1.3.4 2 .4 2l.6.6c.5-.6 1.2-1 2-1 1 0 1.8.5 2.3 1.4l.7-.9c-.1-.8-.2-1.7-.2-2.6-.1-3.6.5-8.2 1.5-14.8.7-4.5.2-10.3-.8-14.8l.4-.2z"/><path fill="#114A1A" d="M117 114l-2.6-13v.3L112.7 91l1.3-16.6v-.1l-.3-3.2-.9-10.3-.4-5.4-2.4-1.3-.1-.2c0 5.8-4.8 12.1-10.1 12.1-5.2 0-10.1-6.3-10.1-12.1v.1l-2.4 1.3-.4 5.4-.9 10.4-.3 3.2v.1L87 90.9l-1.7 10.3v-.2l-2.6 13s-3 13.4-2.5 23.5h1.6l13.5-.2 2.1-.2 2.1-15.2h.9l2.1 15.2 2.1.1 13.5.2 1.6-.1c.4-9.9-2.7-23.3-2.7-23.3z"/></svg>