<svg xmlns="http://www.w3.org/2000/svg" width="200" height="200" viewBox="0 0 200 200" preserveAspectRatio="xMidYMax meet"><path fill="#8DCF83" d="M51.2 185l1.2 10H57l.5-10h-6.3z"/><path fill="#114A1A" d="M70 200c6-.7 3.8-4.2.9-4.1-.9 0-5.2-.3-8.3-2.7-1.5-1.2-3.3-3.9-5.1-3.9-1.9 0-.8 2.1-3.4 2.1-2.1 0-2-2.1-3.2-2.1-1.7 0-3.1 7.8-.2 10.7h4.9s2.2-1.5 7.1 0H70z"/><path fill="#8DCF83" d="M66.5 49.3c-.3-.9-2.3-3.4-1.5-4.6.4-.5-1.1-3.4-2.2-4.8 0 0-6.2-.5-5.5 5.8 0 0-.7-1.3-2.3-.2-1.6 1.1-.8 4.8-.8 4.8l-1.3 4c.4 1.5-3.4 7.3-3.4 7.3l9.8 2.6c-1.5-2.8.1-5.7.8-7.3.2-.4.6-.7 1.1-.7h1.6c1.2 0 1.6-1.1 1.6-2.4 0-.4.3-.7.5-1.1.1-.3-.8-.4-.8-.4s1.5-.4 1.3-.7c-.2-.2-.2-.5 0-.8.4-.7 1.3-.8 1.1-1.5"/><path fill="#114A1A" d="M66.4 73c-1.4-1.5-7.3-10.1-7.6-10.6-1.2-1.7-3.3-2.7-5.6-2.7-4 0-6.7 3.4-7.2 7.3-.4 3.8.4 8.9 2.7 17.9 1.4 5 2.4 8 1.9 13v.2c-1.9 4.8-4.2 7.8-4.8 11.6-1 6.8 2.3 10.8 2.3 10.8l2.9 17.6c.6 3.9-3.8 13-3.4 22.5.4 9.4 3.6 24.3 3.6 24.3h6.3s.9-20 5.2-47c0 0 5.3-22.8 3.1-39.9v-.1c-.5-5-.1-14-.1-14s2.1-1.3 2.9-3.5c.6-2.1.7-4.2-2.2-7.4z"/><path fill="#8DCF83" d="M58.7 67.7c0 3.2-2.6 5.8-5.8 5.8s-5.8-2.6-5.8-5.8c0-3.2 2.6-5.8 5.8-5.8s5.8 2.6 5.8 5.8"/><path fill="#114A1A" d="M62.8 39.8s-2-3.4-6.5-3c-1.2.1-2.3.4-3.2.8.2-.6.3-1.3-.1-2-.4-.8-1.1-1.4-2-1.6-1.8-.3-3.3 1.1-3.1 2.8.1 1.5 1.4 2.6 2.8 2.5-1.8 1.9-2.5 4.6-2.2 6.4.7 4.2 4.4 8.3 4.4 8.3l2.2-3.6c.2-.3.2-.7.1-1-.5-1-1.3-3.3-.1-4.2.9-.6 1.8-.2 2.4.3.3.2.7 0 .7-.4 0-4.9 4.6-5.3 4.6-5.3"/><path fill="#8DCF83" d="M52.5 73.5c5-3.2 6-5.9 3.8-8.5-3.2-3.8-5.1-4.3-8.6-1.3-3.1 2.6-12.5 12-14.9 16.8-.5 1-.3 2.2.5 2.9 4 4.1 18.3 18.2 20.6 17.6l1.4-3.9-14.5-15c4.4-2.6 10.6-7.9 11.7-8.6m-.6 26.6c.9.5 1.1 1.3 2.2 1.5 2.1.3 3.6-1.9 5.9-1.9l2 .5h.4c.1-.1.3-.2.3-.3v-.2c0-.1-.1-.2-.1-.3.1 0 .2 0 .3-.1l.3-.3v-.2c0-.2-.2-.4-.4-.4.2 0 .4-.2.5-.4v-.3c0-.2-.2-.4-.4-.4h-.2c.3.1.6-.1.7-.4v-.3c0-.2-.2-.4-.4-.4l-2.2-.9h-.2l-2.2-.1-4.3 1.6c-.5-.4-1.2-.9-2.3-1.6"/></svg>