<svg xmlns="http://www.w3.org/2000/svg" width="200" height="200" viewBox="0 0 200 200"><path fill="none" d="M0 0h200v200H0z"/><path fill="#8DCF83" d="M124.8 76.1c-.3-.9-2.3-3.4-1.5-4.6.4-.5-1.1-3.4-2.2-4.8 0 0-6.2-.5-5.4 5.8 0 0-.7-1.3-2.3-.2-1.6 1.1-.8 4.8-.8 4.8l-1.3 4c.4 1.5-3.4 7.3-3.4 7.3l9.8 2.6c-1.5-2.8.1-5.7.8-7.3.2-.4.6-.7 1.1-.7h1.602c1.2 0 1.6-1.1 1.6-2.4 0-.4.3-.7.5-1.1.1-.3-.8-.4-.8-.4s1.5-.4 1.3-.7c-.2-.2-.2-.5 0-.8.298-.8 1.198-.8.998-1.5"/><path fill="#114A1A" d="M121.1 66.6s-2-3.4-6.5-3c-1.2.1-2.3.4-3.2.8.2-.6.3-1.3-.1-2-.4-.8-1.1-1.4-2-1.6-1.8-.3-3.3 1.1-3.1 2.8.1 1.5 1.4 2.6 2.8 2.5-1.8 1.9-2.5 4.6-2.2 6.4.7 4.2 4.4 8.3 4.4 8.3l2.2-3.6c.2-.3.2-.7.1-1-.5-1-1.3-3.3-.1-4.2.9-.6 1.8-.2 2.4.3.3.2.7 0 .7-.4.1-4.9 4.6-5.3 4.6-5.3"/><path fill="#8DCF83" d="M72.1 178.8l-8.8 4 1.4 4.4 9.3-2.4-1.9-6zM151.3 185l1.2 10h4.6l.5-10h-6.3z"/><path fill="#114A1A" d="M70.8 196s-1.7-4.5-1-6c.8-1.5 1.3-3.1 1-4.1-.6-1.8-2.2.1-3.2-2.3-.8-1.9 1.1-2.7.6-3.7-.7-1.5-8.4.3-9.9 4.1l2 4.5s2 1.4 2.8 6.5c.3 1.7 1.2 5.2 2.4 5.2h5.3c2.8 0 2.8-1.1 2.9-1.9.1-1.3-1.5-1.4-2.9-2.3zM157.5 185s-.2-17.9 4.2-44.9c1.5-9.2-28.4-11-37.4-11.3-.1-1.3-.2-2.8-.4-3.8-.5-5-.1-14.1-.1-14.1s2.1-1.4 2.9-3.5c.8-2.1.9-4.3-2-7.5-1.4-1.5-7.3-10.1-7.6-10.6-1.2-1.7-3.3-2.7-5.6-2.7-4 0-6.7 3.2-7.2 7.2-.4 3.8.4 9.1 2.7 17.7 1.4 5.3 2.4 8.6 1.9 13.6-1.9 5-4.2 7.8-4.802 11.6-1 6.8 2.3 10.8 2.3 10.8l1.8 17c-3.7.8-8.5 1.8-14 3.8C85.3 171.5 72 178.9 72 178.9l1.9 6s14.7-.3 41-8c4.6-1.4 4.8-5.8 6-11.8v.1s1.7-7.6 2.8-17.2c8.3.8 19.9-.3 25.4-.9-.8 3.9-1.7 8.7-1.5 13.9.4 9.4 3.6 24.3 3.6 24.3h6.3v-.3zM171 195.9c-.9 0-5.2-.3-8.2-2.7-1.5-1.2-3.2-3.9-5.1-3.9-1.9 0-.8 2.1-3.4 2.1-2.1 0-2-2.1-3.2-2.1-1.7 0-3.1 7.8-.2 10.7h4.9s2.2-1.5 7.1 0h7.2c5.9-.7 3.8-4.2.9-4.1z"/><path fill="#8DCF83" d="M121.8 123.7v-.3c0-.2-.2-.4-.4-.4l-2.2-.9h-.2l-2.2-.1-3.63 1.35L99.2 108.9c4.3-2.6 10.6-7.9 11.7-8.6l.02-.015c.094.004.186.014.28.014 3.2 0 5.8-2.6 5.8-5.8s-2.6-5.8-5.8-5.8c-.083 0-.162.008-.244.01-1.457-.463-2.91.12-4.857 1.79-3.1 2.6-12.5 12-14.9 16.8-.5 1-.3 2.2.5 2.9 3.512 3.598 14.96 14.9 19.26 17.203.437.42.77.855 1.54.996 2.1.3 3.6-1.9 5.9-1.9l2 .5h.4c.1-.1.3-.2.3-.3v-.2c0-.1-.1-.2-.1-.3.1 0 .2 0 .3-.102l.3-.3v-.2c0-.2-.2-.4-.4-.4.2 0 .4-.2.5-.4v-.3c0-.182-.168-.357-.35-.388.204-.038.38-.196.45-.41z"/></svg>