<svg xmlns="http://www.w3.org/2000/svg" width="200" height="200" viewBox="0 40 200 200"><path fill="none" d="M0 0h200v200H0z"/><path fill="#114A1A" d="M169.053 168.316l-.026-.022c-2.402-.35-6.105 1.563-7.633 1.336l-.05.384-.068.5.977.513.84.448.332.257c.123.092.272.208.438.328.68.506 1.635 1.157 2.11 1.226.388.058.853.245 1.21.527.384.302.638.718.55 1.22-.247 1.334-2.113 1.498-2.113 1.498l-.128.723s1.604.136 2.442 1.59c.76 1.308.016 1.944 2.613 2.526.246.054.513.107.818.158l-.056.727s-.33 1.715-4.445 1.19l1.246.34c2.107 1.19 7.325-.393 8.07-4.478l.435-2.39c.812-4.453-2.13-8.08-7.562-8.6M122.832 182.095c-1.396-2.598-2.63-5.442-3.243-8.408-.3-1.446-.39-2.64-.354-3.66-.02-.06-.037-.123-.047-.186-.482.092-.984.174-1.522.244-4.33.56-7.172-.07-10.05-.626l.735 4.564 1.655 10.27.456 2.823 14.03-1.788c-.964-1.524-1.724-2.77-1.946-3.316.098.032.19.054.284.085M139.328 164.05c-.493-.01-.998.007-1.508.027 2.08.535 3.923 1.23 5.45 1.91 4.44.27 7.88 2.112 8.306 4.743.54 3.35-3.982 6.706-10.105 7.502-4.772.617-8.92.614-10.912-1.893.76 2.662 1.38 5.44 1.866 7.972l5.906-.756 4.93-2.802s2.905-1.913 5.64-4.01c2.518-1.718 4.292-3.83 3.584-6.605-1.14-4.44-8.363-5.73-13.156-6.09M19.627 180.383l-.11 5.265c.01-.473.834 1.673.822 2.46-.02.786-.74 1.37-.92 2.12-.53 2.2-.083 3.995-.083 3.995-.025 1.164 1.848 3.518 1.848 3.518 3.462 3.607 7.327 1.177 5.08-.893-.62-.575-.038-4.746-.038-4.746.67-1.286 2.98-2.414 3.762-3.718.16-.266.265-.54.27-.826.036-1.68-2.038-1.45-1.987-3.81.032-1.554 1.568-1.21 2.012-2.228.084-.194.135-.435.117-.752-.067-1.506-7.807-2.938-10.775-.383"/><path fill="#8DCF83" d="M167.933 178.84c-.838-1.452-2.442-1.588-2.442-1.588l.13-.722s1.865-.164 2.11-1.497c.09-.503-.164-.92-.548-1.22-.356-.283-.822-.47-1.21-.528-.476-.068-1.43-.72-2.11-1.226-.165-.12-.316-.237-.438-.33-.2-.153-.33-.256-.33-.256l-.842-.448-.977-.512.067-.5c-.42.006-1.196-.02-2.415-.196l-3.084-1.462v-.045c-.895-.434-1.938-.936-3.123-1.434h-.005c-3.304-1.385-7.75-2.77-13.388-2.826 4.793.36 12.016 1.648 13.157 6.09.706 2.773-1.068 4.887-3.585 6.603-2.736 2.097-5.642 4.01-5.642 4.01l-4.93 2.803 12.346-7.02 5.23.772s-.075 1.758-.106 2.742c-.03.99.102 1.163 1.335 1.363 1.232.197 1.098-.14 1.566.305.467.44.795.13.795.13-.174.373.813.587.813.587s.73-.612.568.42c-.174 1.028.682.833 1.037.74.358-.097 1.665-.772 3.57-.38.51.104.956.175 1.38.227 4.115.525 4.443-1.19 4.443-1.19l.056-.726c-.306-.05-.572-.104-.818-.16-2.596-.578-1.852-1.217-2.61-2.525"/><path fill="#8DCF83" d="M75.99 182.555l-.087-.548-.362-2.26-.48-2.966c-1.155.255-2.327.522-3.513.81-.583.137-1.11.34-1.586.588-5.058-1.37-11.816-2.75-18.456-1.477-7.125 1.377-15.238 3.67-21.22 4.818-.444 1.017-1.98.674-2.01 2.23-.052 2.356 2.022 2.128 1.985 3.808-.005.286-.11.56-.27.826 6.99-.836 18.854-2.18 20.82-1.904 1.13.16 5.285-.02 9.87-.297 3.768-.23 7.815-.517 10.72-.737 1.39.542 3.195 1.12 5.324 1.65l-.323-2.004-.41-2.535zM146.476 197.602c-1.32-.125-7.188-1.39-7.188-1.39l-4.4-2.53c.04.044-.508-.53-1.204-1.587-.204-1.543-.615-4.438-1.26-7.782-.485-2.53-1.106-5.31-1.865-7.973 1.99 2.507 6.14 2.51 10.912 1.893 6.123-.796 10.646-4.153 10.105-7.502-.42-2.63-3.867-4.47-8.305-4.743-1.528-.68-3.372-1.378-5.45-1.91-4.66-1.192-10.474-1.538-16.427 1.07-1.67.732-2.645 2.908-2.205 4.694.013.063.027.125.047.188-.034 1.018.055 2.213.353 3.66.613 2.965 1.848 5.81 3.243 8.407-.095-.03-.186-.053-.282-.084.224.55.983 1.793 1.946 3.317 1.963 3.09 4.772 7.36 5.688 9.48.702 1.616 2.115 4.12 5.04 4.154l12.16.16c1.347.014.41-1.392-.908-1.518"/><path fill="#114A1A" d="M108.354 174.022l-.735-4.564s-4.48-1.99-11.733-.047c-7.262 1.94-15.898 3.313-21.37 4.022l.542 3.35.48 2.964.36 2.26.09.55.41 2.533.322 2.003.627 3.89s3.255-.14 6.74-.332c4.09-.226 7.395-.063 11.138-.687 5.756-.96 15.237-2.848 15.237-2.848l-.453-2.823-1.658-10.27z"/></svg>