<svg xmlns="http://www.w3.org/2000/svg" width="200" height="200" viewBox="0 0 200 200"><path fill="#114A1A" d="M145.92 125.81l-1.306-2.12c-1.29-2.098-5.45-2.872-7.786-1.717l-3.14 1.562-.02.007c-.687.346-1.23.827-1.644 1.38l.49-.245 1.88-.936c1.363.98 4.48-.34 5.58 1.438l2.068 3.357c1.1 1.78-.78 3.62-1.605 5.004l-2.126 1.054-.242.123c.66-.022 1.315-.16 1.935-.43.08-.036.162-.053.242-.092l3.158-1.566c2.338-1.162 3.81-4.732 2.516-6.82M21.524 188.55c-1.635.332-3.144.57-4.467.696-.056.006-.12.014-.173.018-.176-.12-.367-.226-.588-.305-.17-.063-.352-.1-.528-.128-.47-.062-.943-.01-1.368.15-.193.075-.37.175-.54.292-1.147-.347-.252-1.683 1.93-3.585-1.443-.31-3.14-.243-3.14-.243-1.322 3.008-3.96 4.24-5.943 6.475-1.754 1.967-2.104 3.84-1.307 4.118 2.587.914 7.415 2.626 7.415 2.626.1-.043.196-.11.296-.18.155.728.493 1.158.907 1.148 2.78-.105 7.966-.295 7.966-.295 1.104-1.08.316-5.6-.198-8.945-.106-.676-.193-1.294-.26-1.844"/><path fill="#114A1A" d="M130.59 141.875v.006c-.16.074-.333.143-.498.217-.93.402-1.93.686-2.96.85-4.313.695-9.11-.647-10.99-3.688-1.88-3.046-.596-7.398 2.352-10.31.706-.693 1.502-1.3 2.38-1.798.152-.087.31-.18.47-.258l-.865-1.974-1.343.5-2.975 1.114-4.262 1.593-7.497 2.803-.503.19-.02.012-15.378 7.746-6.388 2.12.525.852 1.895 3.072 4.707 7.637.025.035 1.027 1.662 3.95 6.4 1.65 2.677.52.853 5.403-3.728 15.513-7.576.445-.285 7.024-4.455 5.522-3.5.486-.31 1.185-.75-1.402-1.71z"/><path fill="#8DCF83" d="M127.133 142.946c1.028-.164 2.03-.447 2.96-.85.164-.074.336-.143.498-.216-.058-.77-.1-1.53-.12-2.215-.035-1.534.18-2.503.295-2.91l1.29-.686-.005-.007c1.25.238 2.69.11 3.81-.294.01.044.027.085.066.127.86.953 3.968-.36 4.737-1.018.778-.656-.388-.636-.388-.636s-.106.017-.27.04c-.62.27-1.276.407-1.936.43l.242-.123 2.126-1.054c.826-1.383 2.705-3.224 1.604-5.004l-2.068-3.357c-1.103-1.778-4.216-.46-5.578-1.437l-1.882.936-.49.244c.415-.552.958-1.033 1.645-1.38l.02-.006c.077-.113.55-.835-.408-.615-1.033.237-3.92 1.9-3.48 3.062.01.024.03.036.044.06-1.098.716-2.075 1.925-2.44 3.137l-.89.36c-.033-.006-1.235-.257-3.15-1.38-.637-.38-1.334-.82-2.023-1.265-.16.078-.317.17-.47.258-.878.497-1.674 1.104-2.38 1.8-2.947 2.91-4.23 7.262-2.35 10.307 1.88 3.042 6.675 4.385 10.99 3.69"/><path fill="#8DCF83" d="M63.154 172.76l-1.71-2.714-.52-.833c.83-.12 1.718-.28 2.642-.46.01-.006.017-.006.026-.01l-1.573-2.024-1.576-2.03-.22-.28-2.064-2.654-1.605-2.07c-1.24.936-2.492 1.898-3.763 2.91-.648.51-1.13 1.09-1.473 1.693-8.072 3.26-28.49 15.26-35.53 21.4-2.18 1.902-3.076 3.238-1.928 3.587.17-.12.346-.22.54-.294.424-.16.896-.212 1.367-.15.176.028.356.064.527.127.22.08.412.185.588.305.054-.004.117-.012.175-.018 1.32-.127 2.83-.364 4.465-.695.067.55.156 1.168.26 1.845 13.576-1.946 37.2-9.942 42.845-15.285l-.364-.59-1.112-1.76z"/><path fill="#FB9A82" d="M90.295 154.257l-1.027-1.662-.026-.036-4.707-7.638-1.896-3.072-.022.005 1.77 2.997 4.377 7.392.272.463.454.768.674 1.138.024-.057 4.04 6.24 1.648 2.548.02-.01-1.65-2.677z"/><path fill="#8DCF83" d="M119.136 125.42l1.342-.5c-.35-.874-.977-1.873-2.03-2.944.005-.033.013-.07.016-.104 0 0-.673-4.107-2.778-9.51-.3-.768-.62-1.42-.956-1.99l-2.93-8.822h-.008c-.136-1.027-.43-2.193-.963-3.516-1.638-4.102-3.674-8.584-5.044-11.67-1.215-2.762-.093-5.07-.093-5.07h-.01c.21-.282.416-.595.6-.963.406-.78.87-1.65 1.93-3.735l.543-.883c.167-.266.06-.605-.24-.758-.304-.147-.684-.05-.847.22l-1.148 1.852c-.93 1.29-1.645.322-1.802.183l-1.79-6.98c-.08-.297-.414-.484-.75-.414-.336.062-.545.365-.467.67l1.265 4.924c-.21-.094-.417-.167-.618-.217l-1.3-5.055c-.08-.302-.41-.486-.748-.42-.336.07-.54.37-.466.67l1.205 4.714c-.176.022-.356.067-.526.12l-1.118-4.358c-.08-.303-.415-.488-.75-.416-.333.066-.542.368-.468.665l1.212 4.71c-.182.138-.337.274-.458.402l-.866-3.356c-.073-.303-.41-.488-.75-.42-.335.067-.54.373-.463.67l1.142 4.436c0 .007.005.02.007.034.12.472 1.087 3.27 2.4 4.27 1.006 1.167.72.942 1.29 3.16l.002.007c-.01 2.544 1.185 8.963 1.94 12 .392 1.562 1.14 3.983 2.115 6.057-.084 1.337-.307 7.266 1.71 12.777.008.02.015.03.022.05.408 1.843 1.12 3.92 2.276 6.215l.022.05c-2.5 2.8-4.562 6.97-5.325 8.624-.19.108-.39.22-.587.334l.022-.012.502-.19 7.497-2.803 4.26-1.594 2.976-1.117zM146.864 198.125c-1.317-.106-7.204-1.292-7.204-1.292l-4.444-2.476s.09-6.418-.283-13.447v-.038h-.004c-.154-2.95-.397-6-.756-8.738 1.467-5.007 1.183-15.296-.007-21.498.132-.37.19-.78.128-1.252-.36-2.85-1.292-4.653-2.3-5.8l-1.184.752-.485.31-5.523 3.5-7.024 4.453-.445.284c.203-.09.403-.177.603-.262 1.253.188 3.756.523 6.442.637-.137 3.484.04 7.83 1.25 11.63.606 4.726-.216 6.162.223 8.905.298 1.855.75 3.713 1.266 5.523.637 2.246 1.368 4.41 2.02 6.392 1.086 3.956 1.563 7.12 1.398 9.827-.105 1.736 2.182 4.098 5.108 4.098h12.162c1.344 0 .385-1.402-.94-1.51"/><path fill="#114A1A" d="M95.876 163.344l-1.648-2.547-4.04-6.24-.023.057-.673-1.14-.454-.767-.272-.463-4.374-7.393-1.772-2.995-.505-.857s-4.164.612-11.656 4.503c-6.557 3.406-11.596 8.49-16.13 11.322l2.226 2.862 1.607 2.07 2.062 2.654.22.28 1.575 2.03 1.573 2.023c-.01.005-.017.005-.026.008-.924.183-1.81.342-2.643.463l.522.837 1.71 2.712 1.11 1.76.363.59 1.785 2.83s2.98-1.186 6.154-2.494c3.72-1.534 6.86-2.457 10.1-4.25 4.98-2.762 13.75-7.01 13.75-7.01l-.544-.842z"/></svg>