<svg xmlns="http://www.w3.org/2000/svg" width="200" height="200" viewBox="0 60 200 200" preserveAspectRatio="xMidYMax meet"><path fill="#8DCF83" d="M168.2 140c-.3 0-.5.3-.8.4-2.5.8-2.2-.1-3.6-.9-1.5-.9-2.9-.2-2.9-.2l-.3-.7s1.4-1.1.9-2.4c-.2-.5-.7-.8-1.1-.8-.5-.1-.9 0-1.3.1-.4.2-1.6.1-2.4-.1-.2 0-.4-.1-.5-.1-.3 0-.4-.1-.4-.1h-2l-.2-.5c-.3.2-1 .6-2.1 1l-7.8.6c-3-.3-7-.6-11.2.4 4.6-.7 11.7-1.1 13.9 3.3.2.3.3.6.4 1-.5-.5-1.1-.9-1.7-1.2-2-2.5-7-2.9-11.9-.9-5.5 2.3-8.9 6.8-7.5 10.2 1.8 4.5 5.6 4.4 10.1 2.9-.1.8-.4 1.6-.5 2.5-.1 1.1-.3 2.2-.3 3.3 0 1.7.5 3.6 1 5.5-1.2 1.5-2.1 3.5-2.3 6.1-.3 3.2-.3 6.5-.2 9.6 0 5.3-2.4 12-.8 16.6.6 1.8 2.1 4.4 4.9 4.4h11.7c1.3 0 .4-1.5-.9-1.6-1.3-.1-7-1.4-7-1.4l-4.3-2.7.7-3.5s3.5-13.3 4.4-22.7c.5-.2.9-.6 1.2-1.1 2.9-5 4.5-15.1 4.5-21l5.2-1.8s.9 1.7 1.5 2.6c.5.9.7 1 1.9.6 1.1-.4.8-.7 1.5-.5.6.2.7-.3.7-.3.1.4 1 .1 1 .1s.3-.9.7.1c.4 1 1 .4 1.3.2.2-.3.9-1.6 2.7-2.2.5-.2.9-.3 1.3-.5 3.7-1.6 3-3.5 3-3.5l-.5-.8zm-89.6 32.4l-.6-1.5-1.2-2.8-1.2-3c-1 .5-2 1.1-3.1 1.7-.5.3-.9.6-1.3 1-5.1-.2-11.8-.1-17.7 2.8-7.9 3.9-16.9 8.3-22.2 10.3.9 1.7-1.3 1.9-.4 3.7 1.1 2.3 2.8 1.1 3.6 2.8 0 0 0 .1.1.1l30.1-9.1c3.7-.1 9.8-1.5 14.3-2.8h1l-.1-.3-1.3-2.9z"/><path fill="#114A1A" d="M171 135.7l-1-2.4c-1.8-4.5-6.3-6.3-11.1-4.1-2.2.9-4.1 4.5-5.5 5.1l.2.4.2.5h2s.2 0 .4.1c.2 0 .3.1.5.1.8.1 2 .2 2.4.1.4-.1.8-.2 1.3-.1s.9.3 1.1.8c.6 1.3-.9 2.4-.9 2.4l.3.7s1.4-.7 2.9.2c1.4.8 1.1 1.8 3.6 1 .2-.1.5-.2.8-.3l.4.7s.7 1.7-3 3.3l1.2-.3c2.4.1 5.8-4 4.2-8.2zM132 136.8c-1 .3-1.9.6-3 1-8.3 3.4-8.1 7.4-15.4 10.4-3.9 1.6-6.7 1.6-9.5 1.7 0 0-4.7-1-11 2.7s-14 7.2-18.9 9.2l1.4 3.4 1.2 3L78 171l.6 1.5 1.1 2.8.1.3 1.6 3.9s3-.9 6.2-1.9c3.8-1.2 6.7-1.8 10-3.3 5.1-2.3 13.3-6.5 13.3-6.5l24.1-9.7h.1c0-1.2 0-2.3.1-3.3.1-.9.2-1.7.4-2.5-4.5 1.5-8.2 1.6-10.1-2.9-1.4-3.4 2-7.9 7.5-10.2 4.9-2 9.8-1.5 11.9.9.6.2 1.2.6 1.7 1.2-.1-.3-.4-.6-.6-1-2.1-4.6-9-4.3-14-3.5zM33.9 190.5c.7-1.4 1.3-2.9.9-3.9-.5-1.7-2.1.1-3.1-2.2-.8-1.8 1-2.5.6-3.5-.6-1.4-7.9.3-9.4 3.9l1.8 4.2s1.9 1.3 2.7 6.1c.3 1.6 1.1 4.9 2.3 4.9h5c2.6 0 2.7-1 2.8-1.8.1-1-1.4-1.1-2.7-2 0 0-1.6-4.3-.9-5.7"/></svg>