<svg xmlns="http://www.w3.org/2000/svg" width="200" height="200" viewBox="0 0 200 200" preserveAspectRatio="xMidYMax meet"><path fill="#114A1A" d="M167.8 166.5s0-.1 0 0c-2.3-.4-5.9 1.6-7.4 1.4l-.1.4-.1.5.9.6.8.5.3.3c.1.1.3.2.4.4.7.5 1.6 1.2 2 1.3.4.1.8.3 1.2.6.4.3.6.8.5 1.3-.2 1.4-2 1.6-2 1.6l-.1.8s1.6.1 2.4 1.7c.7 1.4 0 2.1 2.5 2.7.2.1.5.1.8.2l-.1.8s-.3 1.8-4.3 1.3l1.2.4c2 1.3 7.1-.4 7.8-4.8l.4-2.6c1-5-1.8-8.9-7.1-9.4"/><path fill="#8DCF83" d="M169.3 180.5c-2.5-.6-1.8-1.3-2.5-2.7-.8-1.6-2.4-1.7-2.4-1.7l.1-.8s1.8-.2 2-1.6c.1-.5-.2-1-.5-1.3-.3-.3-.8-.5-1.2-.6-.5-.1-1.4-.8-2-1.3-.2-.1-.3-.3-.4-.4l-.3-.3-.8-.5-.9-.6.1-.5c-.4 0-1.2 0-2.4-.2l-3-1.6v-.1c-3-1.8-8.5-4.5-15.9-4.6 4.6.4 11.6 1.8 12.7 6.6.7 3-1 5.3-3.5 7.1-2.6 2.3-5.4 4.3-5.4 4.3l-4.8 3 11.9-7.5 5 .8s-.1 1.9-.1 3 .1 1.2 1.3 1.5c1.2.2 1.1-.1 1.5.3.5.5.8.1.8.1-.2.4.8.6.8.6s.7-.7.5.5c-.2 1.1.7.9 1 .8.3-.1 1.6-.8 3.4-.4.5.1.9.2 1.3.2 4 .6 4.3-1.3 4.3-1.3l.1-.8c-.2.1-.5.1-.7 0"/><path fill="#114A1A" d="M151.9 168.4c-1.1-4.8-8.1-6.2-12.7-6.6h-1.5c2 .6 3.8 1.3 5.3 2.1 4.3.3 7.6 2.3 8 5.1.5 3.6-3.9 7.2-9.8 8.1-4.6.7-8.6.7-10.5-2 .7 2.9 1.3 5.9 1.8 8.6l5.7-.8 4.8-3s2.8-2.1 5.5-4.3c2.3-1.9 4-4.2 3.4-7.2z"/><path fill="#8DCF83" d="M32.1 187.1v-.4c-.4 0-.9 0-1.3.1.5.1 1.3.6 1.3.3zM30.3 186.8h.5c-.2-.1-.4-.1-.5 0zM123.1 181.1c0 .1.1.2.1.2 0-.1 0-.2-.1-.2zM141.2 177.1c5.9-.8 10.3-4.5 9.8-8.1-.4-2.8-3.7-4.8-8-5.1-1.5-.7-3.3-1.5-5.3-2.1-4.5-1.3-10.1-1.7-15.9 1.1-1.6.8-2.6 3.1-2.1 5v.2c0 1.1 0 2.4.3 3.9.6 3.1 1.7 6.1 3 8.9 0-.1 0-.2-.1-.3.3.8 1 2.5 1.8 3.9 1.9 3.3 4.6 8.1 5.5 10.4.7 1.7 2 4.9 4.9 4.9h11.7c1.3 0 .1-1.9-.9-2-2-.1-6.9-1.5-6.9-1.5l-4.2-2.7s-.5-.6-1.2-1.7c-.2-1.7-.6-4.8-1.2-8.4-.5-2.7-1.1-5.7-1.8-8.6 2 2.9 6 2.9 10.6 2.2zM78.4 184.4l-.1-1-.1-.7-.2-1.1-.1-.6-.3-2.4-.5-3.2c-1.1.3-2.2.6-3.4.9-.6.2-1.1.4-1.5.6-4.9-1.5-11.4-3-17.8-1.6-6.9 1.5-16.5 4.1-22.3 5.3-.4 1.1-1.9.7-1.9 2.4 0 2.3 1.6 2.3 1.9 3.7 12.8-.7 42.2-1 44.3-.6.2 0 .1-.1-.2-.3.8.3 1.6.5 2.6.8l-.4-2.2z"/><path fill="#114A1A" d="M33.8 190.5c.7-1.4 1.3-2.9.9-3.9-.5-1.7-2.1.1-3.1-2.2-.8-1.8 1-2.5.6-3.5-.6-1.4-7.9.3-9.4 3.9l1.8 4.2s1.9 1.3 2.7 6.1c.3 1.6 1.1 4.9 2.3 4.9h5c2.6-.2 2.7-1 2.8-1.8.1-1-1.4-1.1-2.7-2 0 0-1.6-4.3-.9-5.7"/><path fill="#114A1A" d="M124.7 184.7c-.9-1.6-1.1-2.9-1.3-3.5h-.2c-1.3-2.8-2.5-5.9-3.1-9-.3-1.6-.4-2.8-.3-3.9v-.2c-.5.1-.9.4-1.5.4-4.2.6-6.9-.5-9.7-.5 0 0-4.3-2.3-11.3-.3-7 2.1-15.3 3.5-20.6 4.2l.5 3.6.5 3.2.3 2.4.1.6.2 1.1.1.7.1 1 .3 2.2.6 4.2s3.1-.1 6.5-.3c3.9-.2 7.1-.1 10.7-.7 5.6-1 14.6-3 14.6-3h-.1l13.6-2.2zm-1.5-3.5z"/></svg>