<svg xmlns="http://www.w3.org/2000/svg" width="200" height="200" viewBox="0 60 200 200" preserveAspectRatio="xMidYMax meet"><path fill="#8DCF83" d="M170.8 193.6c.9.4 1 .2 1.9.5l1.2-.7c-.8-.7-1.3-1.7-1.1-2.8.2-.9.7-1.7 1.5-2.1l-.5-.6s-1.5.2-2.4 0l-1.2-.1-1.1 5.6 1.7.2zM172.8 182.1c.9.3 2 1 2 1l.8-.4c-.4-.7-.6-1.7-.2-2.5.4-1 1.3-1.7 2.3-1.9l-.7-1.2c-.9-.2-.9-.4-1.9-.5l-1.7-.5-2 5.3 1.4.7zM37 162.5c.1.6.2 1.1.2 1.5-.2 6.5-.4 15.2-.4 21.7-.2 1.3-.6 4.8.1 8.1 0 .2 0 .4.1.6.1.8.4 1.4.8 1.9 1.1 2.1 3 3.6 6.2 3.7h2.2c.8 0 1.4-.6 1.4-1.4 0-.5-.3-.9-.6-1.2.4-.3.6-.7.6-1.2s-.2-.9-.6-1.2c.4-.3.7-.7.7-1.2s-.3-.9-.7-1.2c.4-.3.6-.7.6-1.2 0-.8-.7-1.4-1.4-1.4h-3c.5-4.8 1.7-15.6 2.7-23.2 3.5.3 8.3.7 9.7.9-4.1-2.7-18.2-3.3-18.2-3.3l-.4-1.9zM55.9 142.8l5.3 2.1c0-.1 3.3.8 7.5 1.7h.4c3 .6 6.4 1.1 9.5 1.3-1.7-.1.5.4 3.8 1 .3 0 .5.1.8.1h.1c.3 0 .5.1.8.1h.1c.9.2 1.9.3 2.9.5h.2c.3 0 .5.1.8.1h.3c.2 0 .4.1.6.1h.3c.2 0 .4.1.6.1h.3c.2 0 .4.1.6.1h.2c.3 0 .6.1.8.1h.1c.2 0 .5.1.7.1h2.8c.5.2 1.2.5 1.9.8.8.4 2.7.8 3.4 1.1 2.7 1.3 6.6 3.3 6.9 1.9.1-.5-.7-.8-1.7-1.4-.1-.1-.2-.3-.3-.4l.8.2s1.4.4 3.4.9c.8.2 1.8.5 2.8.8.4.1.7.2 1 .2h.9c.9-.1 1.1-.5 1.1-.5l-10.4-4.5-8.2-1.4c-3.2-1-13.3-5.7-20.2-6.3 0 0-11.9-5.5-20.1-6.8-3.7-.6-8.4.4-11 1.6-.5 0-.8.1-1 .2-.1.1-.6.7-1.3 1.5l.4-.4c.2.4 6.6 3.4 12.1 5.1zm13.1 3.8h-.1.1zM48.4 153.1c1-3.7-.3-10.6-6.1-12.9-1.4 1.9-3.2 4.1-4.2 5.4-1.6-.1-3.8-.6-5.6-1-.6-.9-1.5-1.9-2.4-2.7.3-1.6-3.3-3.4-4.5-3.5-1.2-.2-.3.9-.3.9s.1.2.4.4c-5.2-1.2-6.1 1.3-8.4 5.6-2.1 3.9-.4 6.9 4.9 8.4-.4.1-.5.1-.5.1s-1.4.5-.2.9c1.2.5 5.2.7 5.6-.9v-.1c1.4-.3 2.6-.8 3.7-1.4 1.6.5 3.5 1.1 5 1.7.2 1.7.7 4.8 1 7.2 6.1.9 10.6-4.4 11.6-8.1z"/><path fill="#114A1A" d="M22.2 153.8c-5.3-1.5-7-4.5-4.9-8.4 2.3-4.3 3.2-6.8 8.4-5.6-.3-.2-.4-.4-.4-.4s-.3-.3-.3-.6c-.5-.2-1-.4-1.5-.5-3.6-.9-7.3.4-9.3 3.1-.4-.4-.9-.7-1.5-.9-1.7-.4-3.4.6-3.9 2.3-.4 1.7.6 3.5 2.3 3.9.6.1 1.2.1 1.7-.1.4 3.2 2.9 6.1 6.6 7.1.7.2 1.4.3 2 .3.1-.1.3-.1.3-.1s.1 0 .5-.1zM171.4 187.9c.9.2 2.4 0 2.4 0l.5.6c-.8.4-1.3 1.2-1.5 2.1-.2 1.1.3 2.1 1.1 2.8l-1.2.7c-.9-.3-1-.1-1.9-.5 4.2 1.7 5.5 3.2 8.9 4.9 3 1.5 5.5 1.4 5.6.4.1-.7.3-1.5.4-2.4l1-5.9.2-.9c-1.6-2.3-11.7-2.2-15.5-1.8zM185.2 176.8c-3.7-.2-5.6.4-10.1-.2 1 .1 1 .3 1.9.5l.7 1.2c-1 .2-1.9.9-2.3 1.9-.4.8-.2 1.8.2 2.5l-.8.4s-1.1-.7-2-1c3 2.2 11.8 7.1 14.2 6 0 0 .1-.4.3-.9l2.1-5.6.9-2.3c.3-1-1.8-2.3-5.1-2.5zM137.8 174.1c9.1 2.9 33.6 7.3 33.6 7.3l2-5.3s-14.2-6-20.7-9.2c-5.1-2.5-15.7-3.2-20-3.4l-3.8-1c-4.5-3.3-9.4-5.8-14.2-7.8h-.9c-.3 0-.6-.1-1-.2-1-.3-2-.6-2.8-.8-2-.5-3.4-.9-3.4-.9l-.8-.2c.1.1.2.3.3.4 1 .6 1.8.9 1.7 1.4-.3 1.4-4.2-.6-6.9-1.9-.7-.3-2.6-.7-3.4-1.1-.7-.3-1.4-.6-1.9-.8-3 .3-21.1-2.9-17-2.7-3.1-.2-6.5-.7-9.5-1.3h-.4c-4.2-.8-7.5-1.7-7.5-1.7l-5.3-2.1c-5.5-1.7-11.9-4.7-11.9-4.7l-1.8 2.1c5.9 2.2 7.2 9.2 6.2 12.9-1 3.7-5.5 9.1-11.7 8.2l.7 3.1s15.3.6 18.7 3.6l7 .6s5.1 2.7 10.9 4.7v.1s30.7 14.3 57 12.3c3.7 1.9 10.5 5.1 15.6 5.4 7.2.5 22.5 2.3 22.5 2.3l1.1-5.6s-27-9.5-34.3-10.7c0 0-12.6-4.4-24.6-8.3 5.6 1.2 11 2.3 14.8 3.1 4.6.8 11.7 2.2 11.7 2.2zM179.5 181.5c.8-.4 1-1.4.6-2.1-.4-.7-1.3-.9-2.1-.5-.7.4-.9 1.4-.5 2.1.3.7 1.2.9 2 .5z"/></svg>