<svg xmlns="http://www.w3.org/2000/svg" width="200" height="200" viewBox="0 0 200 200" preserveAspectRatio="xMidYMax meet"><path fill="#8DCF83" d="M91.7 185.9l1.1 9.4h4.3l.4-9.4h-5.8z"/><path fill="#114A1A" d="M109.4 200c5.9-.8 3.6-4 .9-3.8-.8 0-4.9-.3-7.8-2.6-1.4-1.1-3.1-3.7-4.8-3.7-1.8 0-.7 1.9-3.2 1.9-1.9 0-1.9-1.9-3-1.9-1.6 0-2.9 7.8-.2 10.1h4.6s2-1.4 6.7 0h6.8z"/><path fill="#8DCF83" d="M106.1 57.8c-.3-.8-2.4-3.3-1.6-4.4.4-.5-.7-3.2-2.3-4.6 0 0-5.7-.5-5 5.5 0 0-.6-1.2-2.1-.2s-.8 4.6-.8 4.6l-1.2 3.7c.3 1.4-3.2 6.9-3.2 6.9l9.3 2.4c-1.4-2.6.1-5.4.8-6.9.2-.4.6-.7 1-.7h1.5c1.1 0 1.5-1 1.5-2.3 0-.3.3-.6.5-1.1.1-.3-.8-.4-.8-.4s1.4-.4 1.2-.7c-.1-.2-.2-.5 0-.7.6-.4 1.4-.5 1.2-1.1"/><path fill="#114A1A" d="M102.7 48.8zM91.2 48.4c-1.7 1.8-2.3 4.3-2.1 6.1.6 4 4.2 7.9 4.2 7.9l2-3.4c.2-.3.2-.6.1-.9-.4-1-1.2-3.1-.1-3.9.8-.6 1.7-.2 2.2.3.3.2.7 0 .7-.4 0-4.8 4.3-5.2 4.3-5.2s-1.9-3.2-6.1-2.9c-1.2.1-2.2.4-3.1.8.2-.6.2-1.2 0-1.9-.3-.8-1.1-1.4-1.9-1.5-1.7-.3-3.1 1.1-3 2.7.3 1.3 1.5 2.4 2.8 2.3zM106.1 80.2c-1.3-1.5-6.9-9.5-7.2-10-1.2-1.6-3.2-2.6-5.3-2.6-3.7 0-6.6 3-7 6.8-.4 3.6.8 8.7 2.3 16.8 1.6 5 2.7 7.8 2.1 12.5-1.8 4.7-4 7.5-4.5 11.1-.9 6.4 2.1 10.2 2.1 10.2l2.7 16.7c.6 3.7-3.6 12.3-3.2 21.2.4 8.9 3.4 23 3.4 23h5.9s.9-18.8 4.9-44.7c0 0 5-21.2 2.9-37.6-.5-4.7-.1-13.2-.1-13.2s2-1.2 2.7-3.3c.9-2 1-4-1.7-6.9z"/><path fill="#8DCF83" d="M104.7 130.2l-.5-10-5.4-24.8c-.1-.5.7-15.8.7-17.5.1-4.6-1-6.9-3.2-7.3-.9-.6-1.9-.9-3-.9-3 0-5.5 2.4-5.5 5.5 0 1.6.7 3 1.7 4 .8 5.7 2.5 15.8 3.4 18.6 1 3.3 8 21.7 8.1 23.1.1 1.3-.4 4.2.3 5.9.7 1.7 2.9 7.8 3.3 7 .4-.8.1-3.6.1-3.6z"/></svg>