<svg xmlns="http://www.w3.org/2000/svg" width="200" height="200" viewBox="0 0 200 200" preserveAspectRatio="xMidYMax meet"><path fill="#8DCF83" d="M92.4 184.4l-1 9.1 4.2 1 2.5-8.7-5.7-1.4z"/><path fill="#114A1A" d="M91.6 93.6c-1.8 1.7-2.6 4.2-2.4 5.9.4 4 3.7 8.1 3.7 8.1l2.2-3.3c.2-.3.2-.6.1-.9-.4-1-1-3.2.1-3.9.9-.5 1.7-.1 2.2.4.3.2.7 0 .7-.3.3-4.8 4.6-4.9 4.6-4.9s-1.7-3.3-5.9-3.2c-1.2 0-2.2.3-3.1.6.3-.6.3-1.2.1-1.9-.3-.8-1-1.4-1.8-1.6-1.7-.4-3.1.9-3.1 2.5.1 1.4 1.2 2.5 2.6 2.5z"/><path fill="#8DCF83" d="M106 103.8c-.2-.8-2-3.4-1.2-4.5.4-.5-.8-3.3-1.8-4.7 0 0-5.8-.8-5.4 5.2 0 0-.6-1.3-2.1-.3-1.5.9-1 4.5-1 4.5l-1.4 3.7c.3 1.4-6.4 6.5-6.4 6.5l12 3.1c-1.3-2.7.4-5.4 1.1-6.9.2-.4.6-.6 1.1-.6l1.5.1c1.1.1 1.6-1 1.6-2.2 0-.3.3-.6.5-1 .2-.3-.8-.4-.8-.4s1.4-.3 1.2-.6c-.1-.2-.2-.5.1-.7.3-.6 1.2-.6 1-1.2"/><path fill="#114A1A" d="M85.6 140.1c-1 .2-1.9.4-2.8.6 2.2-2.4 3.8-4.5 3.8-4.5s2.2.9 4.3.4c2.1-.5 3.9-1.5 4.9-5.4.5-1.9 4.3-11 4.5-11.5.7-1.9.4-4-.7-5.8-2-3.1-7.9-3.9-11.2-2.2-3.2 1.6-9.6 5.1-15.6 11-9.1 9-16.2 20.9-15.9 27.3-.5 3 .6 14.4 15.7 12.3 9.7-1.4 19-4.4 25.6-6.9-1.2 2.6-2.2 5.2-2.7 7.9-1.7 8.8-3 21.2-3 21.2l5.8 1.4s9.7-22.1 15.7-37.2c.6-5.6-7.7-12.9-28.4-8.6zM110.3 196.2c-.8 0-4.9-.3-7.8-2.6-1.4-1.1-3.1-3.7-4.8-3.7-1.8 0-.7 1.9-3.2 1.9-1.9 0-1.9-1.9-3-1.9-1.6 0-2.9 7.4-.2 10.1h4.6s2-1.4 6.7 0h6.9c5.8-.8 3.5-4 .8-3.8z"/><path fill="#8DCF83" d="M152.1 124c-.6-.6-3.4-1-3.4-1l-9.7-2.4-25.3-2.7c-.6 0-15-4.1-16.6-4.6-1.1-.3-2.1-.6-2.9-.7-.4-.1-.9-.2-1.4-.2-.6 0-1.2.1-1.7.3H91c-2.2.7-3.7 2.8-3.7 5.2 0 3 2.4 5.5 5.5 5.5.7 0 1.4-.1 2-.4 5.5.6 16.5 1.2 19.5 1.2 3.4-.1 23.1-.6 24.4-.3 1.3.3 3.9 1.6 5.7 1.4 1.8-.3 8.3-.7 7.7-1.3z"/></svg>