<svg xmlns="http://www.w3.org/2000/svg" width="200" height="200" viewBox="0 0 200 200" preserveAspectRatio="xMidYMax meet"><path fill="#8DCF83" d="M104.5 12.8c-.2-.3-1.1-1.4-1-3.3V8.2c-.1-4-1.9-4-1.9-4l-.8.1v.8c-.2 2.6-1 1.7-2.3 2.7-1.4 1-1.3 2.3-1.3 2.3h-.8s-.5-1.5-1.9-1.5c-.5 0-.9.4-1.2.9-.2.4-.4.9-.4 1.3 0 .5-.5 1.5-1 2.2-.1.2-.2.4-.3.5l-.2.4-.3.9-.4 1h-.5c.1.4.2 1.1.2 2.3L88 25.4c-1.4 2.7-3.2 6.2-3.8 10.5 1-4.5 3.4-11.2 8.3-11.6 2.3-.2 4 .9 5.3 2.6l1.2 1.8c1.8 2.9 3.5 6 3.5 6l-3.9-8.6v-.9l.3-5.7s1.9-.2 2.9-.4c1.1-.1 1.2-.3 1.2-1.5s-.3-1 .1-1.5 0-.8 0-.8c.4.1.5-.9.5-.9s-.8-.6.4-.6c1 .1.7-.7.5-1"/><path fill="#8DCF83" d="M96.7 99h-7.8c.1 1 .2 2.3.4 3.4.1.6.2 1.1.4 1.6-2.1 4.6-4.5 10.8-4.1 17.3.6 8.9 2.6 19.5 2.3 25.1 1.8 0 1.1 2 3 2 2.5 0 2.2-2 4-2h.1c0-5.7.2-20.8.9-23 .3-1 .7-5 1-9.4 1.4-3.5 2.3-9.6 2.8-14.2.1-.3.3-.9.4-.9h-3.4v.1zm2.1-21.9c-.3-1.3-1.3-5.4-2.6-10.2-.1-.5-.3-1-.4-1.6-1.3-4.6-2.9-9.6-4.6-13.3.6-1.1 1.4-3 2.2-5.3 5.2-.3 6.1-5 6.1-10.7 0-2.3-.4-4.4-1.1-6.1-.2-1.1-.8-2.2-2-3.1-1-1-2.2-1.6-3.5-1.6-1.9 0-3.6 1.4-4.8 3.5-1.6 2-2.7 4.6-2.4 7.1v.2c-.8 1.7-1.4 4-1.6 6.7-.1 2.3.2 5.1 1 8.3.1.2.2.5.3.7-.3 2.2-.4 5 .6 7.9.3.9.6 1.8 1 2.7.5 1.5 1.1 3 1.8 4.5.1.3.3.4.4.8 1.5 3.6 3.1 7.4 4.2 8.4 0 0-.4 3.3 0 6.5.2 1.6.5 2.8.7 3.6.1.2.1.4.2.6l-1.1 2.5c-.2.4 0 .9.4 1 .1 0 .2.1.3.1.1 0 .3 0 .4-.1 0 .3.1.7.5.8.1 0 .2.1.3.1.3 0 .5-.2.7-.4 0 .3.2.6.4.7.1.1.2.1.3.1.3 0 .6-.2.7-.4l.1-.2c-.1.4 0 .8.4.9.1.1.2.1.4.1.3 0 .6-.2.7-.4l1.6-2.7.1-.3.6-2.8-.6-2.2-1.7-6.4z"/><path fill="#114A1A" d="M89.9 15.7h.9l.4-1 .3-.9s.1-.1.2-.4c.1-.1.2-.3.3-.5.4-.7 1-1.8 1-2.2 0-.4.1-.9.4-1.2.3-.4.7-1 1.2-1 1.4 0 1.9 1.5 1.9 1.5h.8s-.1-1.3 1.3-2.3c1.3-.9 2.1-.2 2.3-2.8v-.7h.8s1.9 0 2 4l.2-1.2c.9-2.2-1.5-6.9-6-6.9h-2.6c-4.8 0-8.2 3.4-7.9 8.7-.1 2.2 2.5 5.4 2.5 6.9"/><path fill="#114A1A" d="M88.8 67c-.6-2-1.2-3-1.8-4.5-.4 1.6-.9 2.5-1.5 4.5h3.3zM87 62.4zM129.6 119l-5.5-.8-6 38.9H106c6-1 3.7-4 .9-4-.9 0-4.1-.4-7.1-2.7-1.4-1.1-3.1-3.8-4.9-3.8h-.1c-1.8 0-1.5 2-4 2-1.9 0-1.2-2-3-2-.1 0-.1.1-.2.1-1.6.1-3 7.4-.2 10.4H83v4.3L81.6 200h4.6l.5-11h33.2l.4 11h4.6l-1.7-41.3 6.4-39.7zm-34 37.2c.8 0 1.5.8 2.3.8H93c-.5 0 1.8-.8 2.6-.8zM86.8 187l1.2-24h30.8l1 24h-33zM83.9 78.1C85 85.3 85.2 94 85.2 99h19s.3-3.1.6-6.5c.3-3.9 1-7.1.8-10.7-.2-5.6-.9-14.9-.9-14.9l.1-27-2.3-5.1s-1.6-3.1-3.5-6c-.4-.7-.8-1.3-1.2-1.8-1.3-1.7-3-2.8-5.3-2.6-4.9.4-7.2 7.1-8.3 11.6-.2 1.1-.3 2.2-.3 3.3 0 1.4.1 2.6.3 3.7.1-2.8.8-5 1.6-6.7v-.2c-.2-2.6.9-5.2 2.4-7.1 1.2-2.2 2.9-3.5 4.8-3.5 1.3 0 2.4.6 3.5 1.6 1.1.9 1.7 1.9 2 3.1.7 1.7 1.1 3.8 1.1 6.1 0 5.8-.9 10.5-6.1 10.7-.9 2-1.7 4-2.3 5 1.6 3.6 3.2 8.7 4.5 13.4.1.5.3.6.4 1.6 1.3 5 2.3 8.9 2.6 10.2l1.6 6.3.6 2.2-.6 2.8c0 .1 0 .2-.1.3l-1.6 2.7c-.1.3-.4.4-.7.4-.1 0-.2 0-.4-.1-.3-.2-.5-.6-.4-.9l.1.1c-.1.3-.4.4-.7.4-.1 0-.2 0-.3-.1-.3-.1-.4-.4-.4-.7-.1.3-.4.4-.7.4-.1 0-.2 0-.3-.1-.3-.1-.5-.5-.5-.8-.1.1-.3.1-.4.1-.1 0-.2 0-.3-.1-.4-.2-.6-.6-.4-1l1.1-2.5c-.1-.2-.1-.3-.2-.5-.2-.8-.5-2.2-.7-3.7-.4-3.1 0-6.5 0-6.5-1.1-1-2.6-4.7-4.2-8.3-.2-.2-.3-.6-.4-.6h-3.2c-.1 0-2.8 3.9-1.7 11.1z"/></svg>