<svg xmlns="http://www.w3.org/2000/svg" width="200" height="200" viewBox="0 0 200 200" preserveAspectRatio="xMidYMax meet"><path fill="#8DCF83" d="M62 163.7c-6.1 4.6-6.4 9.1-18.1 24.7.7 1.1-.3 2.3 1.3 3.8 1.2 1 1.9-.1 2.9.1 3-3.8 6.9-7.8 12-11.7 6.6-5 6.4-7.2 8.1-12.6 1.1.1 2.3-.1 3.2-.4 3-1.1 5.9-2.3 8.6-3.4l-8.1-11.5c-5.5 4.8-9.4 9.3-9.9 11z"/><path fill="#114A1A" d="M115.1 82h-2.6c-4.4 0-6.9 4.6-6 6.8l.2 1.2c.1-4 1.9-4 1.9-4l.8.1v.8c.2 2.5 1 2 2.3 3 1.4 1 1.3 2.7 1.3 2.7h.8s.5-1.8 1.9-1.8c.5 0 .9.3 1.2.7.2.4.4.8.4 1.2 0 .5.5 1.5 1 2.2.1.2.2.3.3.5l.2.4.3.9.4 1h.9c0-1.5 2.6-4.7 2.6-7 .3-5.4-3.1-8.7-7.9-8.7zM121.2 107c-.6-.8-1.3-1.4-2.1-1.8-1.1-.5-2.1-.6-3.1-.5-.4.1-.7.1-1.1.3-.5.2-.8.5-1.6.8h-.1c-.5.3-1.1.7-1.6 1.1-.1.1-.2.1-.2.2-2.8 2.1-5.4 4.4-5.4 4.4l-3.9 4-.7 2-6.8 19.9 3.4 10.3-3.4-10.3S91.7 139 87 142c-1.4.9-2.6 1.7-3.9 2.5-1.6 1-3.4 2.2-6.2 4.2-2.8 1.9-4.9 4.2-4.9 4.2l8.1 11.5 2.8 4c4.3-3 11.1-7.4 17.9-10 8.5-3.3 9.8-10.9 9.8-10.9 1-3 1.7-4.5 3.1-8.4 1.8-4.8 3.4-7 5.1-10.2-.6-1.4-1.3-3-1.9-4.8-2 1.9-4.3 2.8-6.3 2-5.3-2-4.4-6.8-2.4-12.3 2.1-5.6 6.5-9 9.9-7.8 1.7.6 2.7 2.3 3.2 4.4.3.4.6.7.9 1.1.2.2.3.4.5.6 0-2-.5-3.8-1.5-5.1zM172.5 119.2l-5.5-.9v.1l-6 38.8h-34.1v9s-.3.2-.7.2l-1.5 33.6h4.6l.5-10.5h33.1l.4 10.5h4.6l-1.7-41.2 6.3-39.6zm-42.6 68l1.2-24.8h30.7l1 24.8h-32.9z"/><path fill="#8DCF83" d="M129 135.1c-.4-2.4-1.3-4.5-2.4-6.1 1.7-9.4-1.6-14.5-3.6-16.9-.2-1.6-.4-3.2-.8-4.7-.8-3.3-1.8-6.1-2.5-7.5 0-1.2.1-1.9.2-2.3h-.5l-.4-1-.3-.9s-.1-.1-.2-.4c-.1-.1-.2-.3-.3-.5-.4-.7-1-1.7-1-2.2 0-.4-.1-.9-.4-1.2-.3-.4-.7-.6-1.2-.6-1.4 0-1.9 1.8-1.9 1.8h-.7s.1-1.6-1.3-2.7c-1.3-.9-2.1-.4-2.3-2.9v-.8l-.8-.1s-1.9 0-1.9 4v1.3c.1 1.9-.8 3-1 3.3-.2.3-.5 1.1.6 1.1s.4.6.4.6.1 1 .5.9c0 0-.4.3 0 .8s.1.3.1 1.5.2 1.4 1.2 1.5c1 .1 2.9.4 2.9.4l.1 1.8-.5 1.4-8.9 10.7 3.9-4s2.6-2.3 5.4-4.4l.2-.2c.5-.4 1-.6 1.5-.9v.2c.5-.8 1.1-.8 1.6-.9.4-.1.8-.3 1.2-.4 1-.1 2-.1 3.1.4.9.4 1.6 1 2.1 1.8 1 1.4 1.5 3.1 1.7 5.1-.2-.2-.4-.5-.5-.6-.3-.4-.6-.8-.9-1.1-.4-2.2-1.5-3.8-3.2-4.4-3.4-1.3-7.8 2.2-9.9 7.8-2.1 5.6-2.9 10.4 2.4 12.3 2 .7 4.3-.1 6.3-2 .6 1.7 1.3 3.4 1.9 4.8.7 1.5 1.3 2.7 1.7 3.3.1.2.3.3.4.5.7 7 3 16.6 4.2 21.4-.7 1.3-1.2 2.5-1.2 3.1 0 1.1 1.2 8 1.5 8.9.1.4.3.5.6.5.4 0 .7-.2.7-.2v-9h2.9c.9 0 1-.2 1-1.2 0-.4-.3-1-.5-1.6.6-2.6-.1-12.6-1.2-19.5"/><path fill="#114A1A" d="M48.6 191.7c-1.1-.4-1.8.9-3-.2-1.7-1.5-.6-2.7-1.4-3.8-.1-.1-.2-.3-.3-.4-1.3-1.2-4.4-.4-6.2-.5-3.8-.2-6.4-2.1-7-2.7-2-1.9-5.9-1-1.9 3.5l2.8 2.5s2.6 2.3 3.2 2.9c.6.5 1.6.3 2.3.9.6.6 1.8 2.7 1.4 2.4l4.2 3.8c3.9-.2 7.9-6.7 6.7-7.8-.4-.4-.6-.5-.8-.6"/></svg>