<svg xmlns="http://www.w3.org/2000/svg" width="200" height="200" viewBox="0 0 200 200" preserveAspectRatio="xMidYMax meet"><path fill="#8DCF83" d="M99.5 112.3c0 2.5-4 3.6-6.6 3.6-2.5 0-3.6-2.1-3.6-4.6 0-2.5 2.1-4.6 4.6-4.6 2.6 0 5.6 3 5.6 5.6"/><path fill="#8DCF83" d="M107.8 185.4l1.2 9.4h4.5l.5-9.4h-6.2z"/><path fill="#114A1A" d="M126.2 200c6.1-1 3.7-4.4.9-4.2-.9 0-5.1-.4-8.1-2.8-1.5-1.1-3.2-3.9-5-3.9-1.8 0-.8 2-3.3 2-2 0-2-1.8-3.1-1.8-1.6 0-3 7.6-.2 10.7h4.8s2.1-2.1 6.9 0h7.1z"/><path fill="#8DCF83" d="M90.8 75.9c-.3-.9-2.3-3.4-1.5-4.5.4-.5-1-3.3-2.2-4.7 0 0-6-.5-5.3 5.7 0 0-.7-1.3-2.2-.2-1.5 1-.8 4.7-.8 4.7l-1.3 3.9c.3 1.5-3.3 7.1-3.3 7.1l9.6 2.5c-1.5-2.7.1-5.6.8-7.2.2-.4.6-.7 1.1-.7h1.5c1.2 0 1.6-1.1 1.6-2.4 0-.3.3-.7.5-1.1.1-.3-.8-.4-.8-.4s1.5-.4 1.2-.7c-.1-.2-.2-.5 0-.8.4-.5 1.3-.6 1.1-1.2"/><path fill="#114A1A" d="M90.8 129.9l-.8-5.7c-.5-5.5-.1-14.1-.1-14.1s2.1-1.5 2.8-3.6c.7-2.1.9-4.3-1.9-7.4-1.4-1.5-7.1-9.9-7.4-10.4-1.2-1.7-3.3-2.7-5.5-2.7-3.9 0-6.6 3-7 6.8-.4 3.7.4 8.9 2.6 17.2 1.4 5.5 2.4 9 1.8 13.9-1.8 4.2-4.1 7.4-4.7 11.2-.4 3-.2 6.8 1.5 9.5 2 3.2 5.7 3.5 9.2 3.8 8.1.8 16.5 0 24.6-.9-.8 3.8-1.7 8.7-1.5 13.8.4 9.2 3.5 24 3.5 24h6.1s-.2-17.5 4.1-44c1.2-8-16.1-11.4-27.3-11.4z"/><path fill="#8DCF83" d="M83.2 93.8c0 3.1-2.5 5.7-5.7 5.7-3.1 0-5.7-2.5-5.7-5.7 0-3.1 2.5-5.7 5.7-5.7 3.1.1 5.7 2.6 5.7 5.7"/><path fill="#114A1A" d="M87.2 66.6s-1.9-3.3-6.3-3c-1.2.1-2.3.4-3.2.8.2-.6.3-1.3-.1-2-.3-.8-1.1-1.4-2-1.5-1.7-.3-3.2 1.1-3.1 2.8.1 1.4 1.3 2.5 2.8 2.5-1.8 1.9-2.4 4.5-2.1 6.3.6 4.1 4.3 8.2 4.3 8.2l2.1-3.5c.2-.3.2-.7.1-1-.4-1-1.3-3.3-.1-4.1.9-.6 1.7-.2 2.3.3.3.2.7 0 .7-.4.1-5.1 4.6-5.4 4.6-5.4"/><path fill="#8DCF83" d="M82.8 91.8s11.5 15.1 13.5 18.6c2.1 3.5-4.9 3.7-4.9 3.7L73.1 97.4l9.7-5.6zm12.6 14.5c0 .6-.4 1-1 1s-1-.4-1-1 .4-1 1-1 1 .5 1 1m1.3 1c0 .6-.4 1-1 1s-1-.4-1-1 .4-1 1-1 1 .5 1 1m1.3 1c0 .6-.4 1-1 1s-1-.4-1-1 .4-1 1-1 1 .5 1 1m1 1.4c0 .6-.4 1-1 1s-1-.4-1-1 .4-1 1-1 1 .5 1 1"/></svg>