<svg xmlns="http://www.w3.org/2000/svg" width="200" height="200" viewBox="0 60 200 200" preserveAspectRatio="xMidYMax meet"><path fill="#8DCF83" d="M44.6 175.6c-.9 0-4 1.3-4.9.2-.4-.5-3.6.1-5.3.8 0 0-2.4 5.6 3.9 6.8 0 0-1.5.2-.9 2 .5 1.8 4.4 2.2 4.4 2.2l3.4 2.4c1.6.1 5.9 5.5 5.9 5.5l5.5-8.6c-3.1.6-5.5-1.8-6.8-3-.4-.3-.5-.8-.3-1.3l.5-1.5c.4-1.2-.6-1.9-1.8-2.3-.3-.1-.6-.5-.9-.8-.2-.2-.6.7-.6.7s.1-1.6-.3-1.4c-.2.1-.5 0-.7-.3-.6-.5-.4-1.4-1.1-1.4"/><path fill="#114A1A" d="M41.4 186.6c-1.1.1-3.6.2-4-1.2-.3-1 .4-1.7 1-2.2.3-.2.2-.7-.1-.8-4.9-1.6-3.9-6.1-3.9-6.1s-3.8.9-4.9 5.3c-.3 1.2-.3 2.3-.2 3.4-.5-.4-1.2-.7-2-.6-.9.1-1.7.7-2.1 1.5-.8 1.6.1 3.5 1.8 3.9 1.4.4 2.9-.5 3.3-1.9 1.3 2.4 3.6 3.8 5.5 4.1 4.3.7 9.4-1.7 9.4-1.7l-2.8-3.2c-.3-.4-.7-.6-1-.5zM139.1 165.6c-8.4-9.3-12.2-13.9-22.4-3.4s-19.9 17.2-19.9 17.2l-8.7.5c-5.5.5-14.3.1-14.3.1s-1.4-2.1-3.6-2.9c-2.2-.8-4.4-.9-7.6 2-1.6 1.4-10.2 7.3-10.6 7.7-1.7 1.2-2.7 3.4-2.7 5.7 0 4 3.3 6.8 7.2 7.2 3.8.4 9.3-.5 17.9-2.7 5.4-1.4 8.7-1.4 13.7-.9 4.8 1.9 8.8 3.7 12.7 3.8 7.4.1 11.1-3.2 13.1-6.4s15.5-23.3 15.5-23.3.5 3.6 8 9.2c2.5 1.9 6.5 4.7 12.6 8.9l4.6-2.8-15.5-19.9z"/><path fill="#8DCF83" d="M101.2 145.7c-.8.1-3 2.2-3 2.2l-8.3 6.6-18.4 18.2c-.4.5-13.7 11.3-15.2 12.4-3.4 2.4-4.9 4.5-4.6 6.4-.1.4-.2.9-.2 1.3 0 3.2 2.6 5.8 5.8 5.8 3.1 0 5.6-2.4 5.8-5.5 4.2-4.5 12.1-14.3 14-16.9 2.2-2.9 14.1-18.5 15.3-19.4 1.1-.9 3.8-2.3 4.8-3.9s4.8-7.3 4-7.2zm53.4 39.8l4.6 5.3-5.8 3.2-3.4-5.7 4.6-2.8z"/><path fill="#114A1A" d="M171 200c6.3-.7 3.8-4.2 1-4.1-.9 0-5.2-.3-8.3-2.8-1.5-1.2-3.3-3.9-5.2-3.9-1.9 0-.8 2.1-3.4 2.1-2.1 0-2.8-1.5-4-1.5-1.7 0-2.3 7.3.6 10.2h4.9s2.2-1.5 7.1 0h7.3z"/></svg>