<svg xmlns="http://www.w3.org/2000/svg" width="200" height="200" viewBox="0 15 200 200" preserveAspectRatio="xMidYMax meet"><path fill="#114A1A" d="M142.5 163.3c-.8-.3-3.8-1.8-5.7-5.2-.9-1.5-1.5-4.5-3-5.3-.1 0-.1-.1-.2-.1-1.7-.7-2.2 1.3-4.6.4-1.9-.7-.3-2.4-2.3-3.1h-.1c-1.6-.2-5.6 6.1-4 9.7l5.3 2.1c-.5-.2 2-.1 2.8.2.8.3 1.1 1.3 1.9 1.7l4.1 1.6c1.2.5 3.6 1.4 3.6 1.4 5.8 1.6 4.9-2.5 2.2-3.4zM114.8 123.5l1.4-.1 6.6-.6 2.7-.2V120l.1-1.7.2-13.4v-.1h-1.6c-1.2 0-2.4 0-3.6.1h-5.1c-2.2 0-3.9 0-5-.1 0 0 0 .1-.1.1 0-.1.1 0 .1 0v-8.8c-.1 0-.2 0-.2.1-1.9.8-4-.4-5.4-1.6-.9-.6-1.7-1.3-2.4-1.9-3.8-3.3-5.7-6.7-6.6-9.4-2.4-1.7-4-5.6-4-10.1 0-6.1 3-11 6.7-11s6.7 4.9 6.7 11c0 1.6-.1 3.1-.3 4.5 1.6 2.9 3.2 6.6 4.3 9.6.4-.2.8-.4 1.3-.6V77l-2.3-5.2s-1.7-3.1-3.6-6.1c-.4-.7-.8-1.3-1.2-1.9-1.4-1.7-3.1-2.8-5.4-2.6-5 .4-7.4 7.2-8.4 11.8-.2 1.1-.3 2.2-.3 3.4 0 9.1 2.8 10.7 2.8 18.7 0 4.2.8 7.3-.2 9.7v-.1c-.1.2-.3.8-.5 1.9-.8 3.5-2 10.9 1.4 15.6 4.5 6.4 8.9 17.9 8.9 17.9l.9-.2 13.8-2.7h.2s-.1-1.3-.3-3.3c-.3-2.4-.8-6.4-1.6-10.4zM111.5 195.2c-.9 0-4-1.2-6.5-4.1-1.2-1.4-2.4-4.4-4.2-4.8-.2 0-.3-.1-.4-.1-1.4 0-1.7 1.7-4 1.2-2-.4-.7-2.3-2.8-2.6-.1 0-.3 0-.4.1-1.6.8-3.9 7.1-1.9 10.2l5.6 1.1c-.5-.1 1.9-.5 2.8-.3.8.2 1.3 1.1 2.1 1.3.8.2 4.3.9 4.3.9l3.7.8c6.1.5 4.5-2.9 1.7-3.7z"/><path fill="#8DCF83" d="M122.9 122.9l-6.6.6c.1.4.2.7.2.9l1.6 4.7c.1.3.5.5.8.4.3-.1.5-.5.4-.8l-1.2-3.6c.2.1.4.1.6.1l1.7 5c.1.3.5.5.8.4.3-.1.5-.5.4-.8l-1.6-4.6c.2 0 .3-.1.5-.2l1.7 5c.1.3.5.5.8.4.3-.1.5-.5.4-.8l-1.8-5.4c.1-.2.3-.3.4-.5l1.7 5.2c.1.3.5.5.8.4.3-.1.5-.5.4-.8l-2-5.6zm3.9-1.5c.2-.3.1-.7-.2-.8l-1-.5v1.4l.4.2c.2.1.6 0 .8-.3"/><path fill="#9CD68E" d="M124.3 104.9c-1.1 0-2.3 0-3.5.1 1-.1 2.2-.1 3.5-.1"/><path fill="#8DCF83" d="M139.3 111.1c0-.4-.1-.6-.1-.6-.2-.8-.6-1.5-1.3-2.1-2.2-1.9-6.6-3.2-12.3-3.4v13.4l4.5-1.2c-1.8 3.1-3.4 7.2-3.6 12.6-.3 6.7.1 14.4 0 20.2h.1c2 .7.4 2.4 2.3 3.1 2.4.9 2.9-1 4.6-.4.1 0 .1.1.2.1.8-6.9 2.2-18 3-19.8.4-1 1.3-5 2.1-9.4 1-5.4.6-10.7.5-12.5M98.2 61.4c2.3-.2 4.1.9 5.4 2.6.4.6.8 1.2 1.2 1.9 1.9 3 3.5 6.1 3.6 6.1l-3.9-8.7v-.9l.3-5.8s1.9-.2 3-.4c1.1-.1 1.2-.3 1.3-1.5 0-1.2-.3-1 .1-1.6.4-.5 0-.8 0-.8.4.1.5-.9.5-.9s-.8-.6.4-.6c1.1 0 .8-.8.6-1.1-.2-.3-1.1-1.5-1-3.4v-1.4c-.1-4.1-2-4.1-2-4.1l-.8.1v.8c-.2 2.6-1 2-2.3 3-1.4 1.1-1.3 2.7-1.3 2.7h-.8s-.5-1.8-1.9-1.8c-.6 0-1 .3-1.2.7-.2.4-.4.9-.4 1.3 0 .5-.6 1.5-1 2.3-.1.2-.2.3-.3.5l-.2.4-.3.9-.4 1h-.5c.1.4.2 1.2.2 2.4L94 62.7c-1.4 2.7-3.2 6.3-3.9 10.7.7-4.8 3.1-11.6 8.1-12"/><path fill="#8DCF83" d="M102.8 139.9c.7 1.6 1.4 3.6 2.2 5.4-2.9 3.1-6.5 7.5-7.7 14.2-1.3 7.6-2.7 18.4-4.2 25.2.1-.1.3-.1.4-.1 2.1.3.9 2.2 2.8 2.6 2.3.5 2.6-1.2 4-1.2 3.1-9.1 9.6-25.6 10.3-27.7.6-1.6 2.9-5.8 4.8-11.8.7-1.3 1.2-4.7 1.1-9.3l-13.7 2.7zM109.4 87.5c-1.1-3-2.7-6.8-4.3-9.6.2-1.4.3-2.9.3-4.5 0-6.1-3-11-6.7-11s-6.7 4.9-6.7 11c0 4.5 1.7 8.4 4 10.1.9 2.8 2.7 6.1 6.6 9.4.7.6 1.5 1.2 2.4 1.9 1.5 1.2 3.5 2.4 5.4 1.6.1 0 .2-.1.2-.1v8.7s0 .1-.1.2h.1c1.1 0 2.8 0 5 .1-1.4-3-2.9-6.2-4.4-9.2 6.5-3.5 12.9-14.4 17.2-17.1 1.6-.4 3.9-2.7 4.2-3.1l3.2-3.8c.2-.3.2-.6-.1-.9-.3-.2-.6-.2-.9.1l-2.4 2.9c0-.2-.1-.4-.2-.6l3.4-4.1c.2-.3.2-.6-.1-.9-.3-.2-.6-.2-.9.1l-3.1 3.8c-.1-.1-.3-.2-.4-.3l3.4-4.1c.2-.3.2-.6-.1-.9-.3-.2-.6-.2-.9.1l-3.6 4.4c-.2 0-.4-.1-.6-.1l3.5-4.2c.2-.3.2-.6-.1-.9-.3-.2-.6-.2-.9.1l-5 6c-.2.1-1.3.7-1.5-1l-.1-2.3c0-.3-.3-.6-.6-.6s-.6.3-.6.6v1.1c-.1 2.5-.1 3.5-.2 4.5 0 0-.4 4.3-8.8 9.7-1.7 1.1-3.2 1.9-4.6 2.6-.2-.1-.6.1-1 .3"/><path fill="#114A1A" d="M95.6 52.8h.9l.4-1 .3-.9s.1-.1.2-.4c.1-.1.2-.3.3-.5.4-.7 1-1.8 1-2.3 0-.4.1-.9.4-1.3.3-.4.7-.8 1.2-.8 1.5 0 1.9 1.7 1.9 1.7h.8s-.1-1.5 1.3-2.6c1.3-1 2.1-.3 2.3-2.9V41l.8-.1s1.9 0 2 4.1l.2-1.3c1-2.2-1.6-7-6.1-7H101c-4.9 0-8.4 3.5-8.1 8.8 0 2.6 2.7 5.8 2.7 7.3z"/></svg>