<svg xmlns="http://www.w3.org/2000/svg" width="200" height="200" viewBox="0 80 200 200" preserveAspectRatio="xMidYMax meet"><path fill="#8DCF83" d="M34 179.2l-9.4 2.5.6 4.6 9.6-.8-.8-6.3zM171.1 176c.8-.4 3.1-2.8 4.4-2.1.6.3 3.2-1.5 4.5-2.9 0 0-.4-6.2-6.5-4.6 0 0 1.2-.9-.1-2.3s-4.9-.2-4.9-.2l-4.1-.8c-1.4.6-7.7-2.4-7.7-2.4l-1.2 10.1c2.5-1.9 5.7-.7 7.4-.2.5.1.8.5.9 1l.2 1.6c.2 1.2 1.3 1.5 2.6 1.3.4-.1.7.2 1.2.4.3.1.3-.9.3-.9s.6 1.4.9 1.2c.2-.2.5-.3.8-.1.4.3.6 1.2 1.3.9m-19.4-5.3c-3.2.4-6.1-1.8-6.5-5-.4-3.2 1.8-6.1 5-6.5 3.2-.4 6.1 1.8 6.6 5 .3 3.2-1.9 6.1-5.1 6.5"/><path fill="#114A1A" d="M180 171s3.1-2.4 2.1-6.8c-.3-1.2-.7-2.2-1.3-3.1.6.1 1.3.1 2-.3.8-.5 1.3-1.3 1.3-2.2 0-1.8-1.6-3.1-3.3-2.7-1.5.3-2.4 1.7-2.1 3.1-2.2-1.6-4.9-1.8-6.7-1.3-4.1 1.2-7.7 5.5-7.7 5.5l3.9 1.7c.3.1.7.1 1-.1 1-.6 3.1-1.7 4.1-.6.7.8.4 1.7 0 2.4-.2.3.1.7.5.7 5.2-.8 6.2 3.7 6.2 3.7"/><path fill="#114A1A" d="M30.6 195.9s-1.7-4.6-1-6c.8-1.5 1.3-3.1 1-4.1-.6-1.8-2.2.1-3.3-2.3-.8-1.9 1.1-2.7.6-3.7-.7-1.5-8.4.3-10 4.1l2 4.5s2 1.4 2.8 6.5c.3 1.7 1.2 5.2 2.4 5.2h5.3c2.8-.2 2.9-1.1 3-1.9.2-1.2-1.4-1.3-2.8-2.3zM158.9 164.2c-.5-3.9-4.4-6.3-8.3-6.2-3.8.1-8.6 1.7-17.6 5.1-5 2.1-8 3.6-13 3.7h.2c-5-1.2-8.2-3.1-12.1-3.2-6.9-.1-10.4 3.7-10.4 3.7l-17.1 5.3c-3.8 1.2-13.5-2.1-22.8-.3-9.3 1.7-23.7 6.8-23.7 6.8l.7 6.2s20.3-1.8 47.3-1.2c0 0 24 2.2 40-2.4 6-1.3 14.2-2.1 14.2-2.1s1.8 1.9 4 2.4 4.5.3 7.2-3c1.4-1.6 9.1-8.6 9.5-9 1.5-1.3 2.2-3.5 1.9-5.8z"/><path fill="#8DCF83" d="M155.3 193.2c-.1-.6.9-22.8 1.1-24.6.9-5.9-1.5-8.5-5-8.6-2.4 0-5.6 1.5-5.6 5.8-.1 4.7 1.4 23.4 2 27 .6 3.6-.7 8.3 7.6 6.5 9.2-1.9 17.5-2.9 17.5-2.9 3.2.2 5.7.6 7 .6h3c.7 0 1.3-.5 1.3-1.2 0-.4-.2-.8-.6-1 .3-.2.6-.6.6-1s-.2-.8-.6-1.1c.3-.2.6-.6.6-1.1 0-.4-.2-.8-.6-1.1.3-.2.6-.6.6-1.1 0-.7-.6-1.3-1.3-1.3h-.1c-.4 0-1 .2-3.4.2-2.9 0-4.4 2.6-6.2 3.6-7-1-14.7.2-22.5-1"/></svg>