<svg xmlns="http://www.w3.org/2000/svg" width="200" height="200" viewBox="0 60 200 200" preserveAspectRatio="xMidYMax meet"><path fill="#8DCF83" d="M170.6 196.6c.2 0 .4.1.6.1.6.1.8-.1 1.5 0l1-.9c-.9-.5-1.7-1.4-1.7-2.6 0-1 .4-1.8 1-2.4l-.6-.6s-1.3.5-2.3.5l-1.8.1.3 5.8h2zM170.2 184c1 .1 2.2.8 2.2.8l.8-.5c-.6-.6-.9-1.5-.8-2.4.1-1.2.9-2.1 1.9-2.3l-.9-1c-.9 0-1-.1-2.1-.1l-1.9-.3-.8 5.8h1.6z"/><path fill="#114A1A" d="M170.2 184c1 .1 2.2.8 2.2.8l.8-.5c-.6-.6-.9-1.5-.8-2.4.1-1.2.9-2.1 1.9-2.3l-.9-1c-.9 0-1-.1-2.1-.1 4.6-.4 6.3-1.4 10.2-2.1 3.4-.5 5.8.4 5.7 1.4l-.4 2.4-.9 6.1c-.1.6-.1.9-.1.9-2.2 1.6-12.1-1.6-15.6-3.2zM70.4 197.3c.3.1.5.3.8.3 1.3.4 2.3.5 3.1.4 10.4 1.5 34.8 4.1 54.4-1 4.1 1.2 11.7 2.8 16.8 2.2 7.3-1 23.1-2.4 23.1-2.4l-.3-5.8c.4-.1-28.4-4-36.5-3.6 0 0-13.4-1.7-26.3-3 5.9 0 11.7-.1 15.7-.1 4.6 0 12.2-.1 12.2-.3 9.9.9 35.2 0 35.2 0l.8-5.8s-15.6-3-22.8-4.8c-5.7-1.4-16.5.3-20.8 1l-4-.1c-15-6.5-30.5-7.4-40.6-7 0 .5.1.9.1 1.3l.4.4c1.2 1.3 1.7 4.4 1.7 4.9l.4 4.9c0 .4-.1.6-.5.6s-.6-.1-.6-.5l-.4-3.7c-.1.1-.4.3-.5.4l.5 5.2c0 .4-.1.6-.5.6s-.6-.1-.6-.5l-.4-4.8h-.5l.5 5.2c0 .3-.1.6-.5.6-.3 0-.6-.1-.6-.5l-.5-5.5c-.1 0-.4-.1-.5-.3l.5 5.4c0 .4-.1.6-.5.6-.3 0-.6-.1-.6-.5l-.8-7.6c-.1-.1-.6-1.3-1.7 0l-1.4 1.8c-.3.3-.6.4-.9.1s-.4-.6-.1-.9l.6-.9c1.3-2.1 1.8-3 2.3-3.7.1-.1.3-.4.4-.5-.2-.6-.3-1.2-.5-1.8-.9.1-1.7.2-2.4.2l-5.3-3.4-4.8-5.3c-4.5-1-14.4-13.1-14.4-13.1l-3 1.3c4.3 4.7 3 11.6.5 14.7-2.4 3.1-8.7 6.1-14.1 3l-.8 3.1s13.9 6.9 15.9 11l6.3 3.5s8.1 10.3 15.2 14l1.3.7zM170.1 190.7c1 0 2.3-.5 2.3-.5l.6.6c-.6.6-1 1.4-1 2.4 0 1.2.8 2.1 1.7 2.6l-1 .9c-.9-.1-1 .1-2.1-.1 4.6.8 6.2 2.1 9.9 3 3.4.9 5.8.3 5.7-.8l-.1-2.4-.3-6.2v-.9c-1.9-1.9-12.1.2-15.7 1.4zM21.1 151.5s.3 0 .6.1c-4.4-3.6-4.6-7-1-9.8 3.9-3.1 5.8-5.2 10.2-1.8-.1-.4-.3-.6-.3-.6s-.1-.2-.1-.4c-.4-.4-.8-.8-1.2-1.1-3.1-2.4-7.1-2.7-9.9-.9-.3-.5-.5-1-1-1.4-1.4-1.2-3.5-.9-4.6.5-1.2 1.4-.9 3.5.5 4.6.5.4 1 .6 1.7.6-1 3.2.1 7.1 3.2 9.5.4.3.8.6 1.2.8.1-.1.7-.1.7-.1z"/><path fill="#8DCF83" d="M47.8 193.8zM47.6 196.2c0-.5-.2-.9-.6-1.2.4-.3.7-.7.7-1.2s-.3-.9-.7-1.2c.4-.3.6-.7.6-1.2 0-.8-.7-1.4-1.4-1.4h-2.8c-3 0-1.5 1-3 1.4l-.3-.4c1.8-2.1 2.3-7.1 3-14.2 2.4 1.4 4.5 2.3 4.5 2.3-1.9-3.9-14.4-10.2-15.9-11-.1.4-.2.7-.2.8 0 .1.1.4.3.8.1.6.4 1.4.9 2.4 1.2 4.9 3.5 9.7 3.2 15-.3 1.2-.5 2.7-.5 4.1v.4c.1 2.8 1.1 5.4 4 6.8 1.1 1 2.6 1.6 4.6 1.6h2.2c.8 0 1.4-.6 1.4-1.4 0-.5-.3-.9-.6-1.2.4-.3.6-.7.6-1.2zM46.6 162c2.4-3.1 3.9-10.2-.5-14.7-2.1 1.1-4.4 2.5-5.9 3.4-1.5-.8-3.4-2.1-4.9-3.2-.3-1.2-.6-2.3-1.2-3.5 1-1.3-1.7-4.5-2.8-5.2-1-.6-.6.6-.6.6s.1.3.3.6c-4.4-3.4-6.3-1.3-10.2 1.8-3.6 2.8-3.4 6.2 1 9.8-.4-.1-.6-.1-.6-.1s-1.4-.1-.5.9c.9.9 4.6 2.8 5.7 1.5v-.1c1.4.3 2.8.3 4.1.3 1.4 1.2 3 2.4 4.1 3.7-.5 1.7-1.3 4.7-2 7.1 5.4 3.2 11.6.1 14-2.9zM49.1 146s9.9 12.1 14.4 13.1c4.8 3 8.8 3.8 11.5 4 .3 1.5.6 3.1 1 4.6.1.6.3 1.1.4 1.6l-.1.1c-.1.1-.2.3-.3.4-.5.8-1 1.7-2.3 3.7l-.6.9c-.3.3-.1.6.1.9s.6.1.9-.1l1.4-1.8c1-1.3 1.5-.1 1.7 0l.3 3 .5 4.6c0 .4.4.5.6.5.4 0 .5-.3.5-.6l-.5-5.4c.1.1.4.3.5.3l.5 5.5c0 .4.4.5.6.5.4 0 .5-.4.5-.6l-.5-5.2h.5l.4 4.8c0 .4.3.5.6.5s.5-.3.5-.6l-.5-5.2c.1-.1.4-.3.5-.4l.4 3.7c0 .4.3.5.6.5s.5-.3.5-.6l-.4-4.9c0-.5-.5-3.6-1.7-4.9l-.4-.4c0-.4 0-.9-.1-1.3-.4-3.4-1.7-7.3-5.8-9-1.2-1-2.8-2.1-4.9-3.5-5.9-3.9-11.7-7-11.9-7-4.4-3.1-7.1-2.8-8.4-2.4l-1 .7zM76 169.8z"/></svg>