<svg xmlns="http://www.w3.org/2000/svg" width="200" height="200" viewBox="0 0 200 200" preserveAspectRatio="xMidYMax meet"><path fill="#8DCF83" d="M41 152v-.2c-4 2.7-8.7 6.5-11.3 12.1-3.2 7-6 15.9-9.7 22.1.4-.2.8-.3 1.1-.2 1.9.9.2 2.3 1.9 3.3 1.7.9 2.5 0 3.5 0 3.5-6.1 10-17.2 11.4-18.4.7-.7 2.9-3.7 5.1-7.1 3.4-5.1 8-11.7 8-11.7 1.1-1.1 3.3-4.6 5.2-9.6L41.7 141c-.2 3.5-.5 7.3-.5 10.9m52.9-46c-2-.8-9.1-1.3-17.5.4l-1.4 17.4c2.9-1.4 6.1-3 9.5-4.9-.2 2.4-.3 5-.1 8.1.5 7.4 1.9 14.5 2.2 19.6 1.9 0 1.1 2 3.1 2 2.5 0 2.2-2 4-2h.1c.1-6 .3-15.7.8-17.4.3-1 1-5 1-9.4 0-2.8.3-9.9.3-9.9.4-1.7-.3-3.2-2-3.9M67.3 53.3c.1-.5.1-.9.1-1.3.3-4-1.6-4.2-1.6-4.2H65c0 .3-.1.6-.1.8-.4 2.5-1.2 1.9-2.5 2.7-1.5.9-1.5 2.5-1.5 2.5l-.8-.1s-.3-1.8-1.8-1.9c-.5 0-1 .2-1.3.6-.3.4-.4.8-.5 1.2 0 .5-.7 1.4-1.2 2.1-.1.2-.2.3-.3.4l-.3.3-.4.8-.5 1h-.5c0 .4.1 1.1 0 2.3l-3.1 7.2c-1.6 2.5-3.7 5.9-4.7 10.1 1.4-4.4 4.3-10.8 9.2-10.8 4 0 5.9 3.8 7.1 7.7l3.8 8.8-4.9-14.2v-.9l.8-5.6s1.9-.1 2.9-.1c1.1-.1 1.2-.2 1.4-1.4.1-1.2-.2-1 .2-1.5s.1-.8.1-.8c.4.1.6-.8.6-.8s-.7-.7.4-.6c1.1.1.8-.7.7-1.1 0-.1-.8-1.3-.5-3.2M53.9 89.6c5.2.2 6.5-4.4 7-10.2.2-2.3-.1-4.4-.6-6.2-.1-1.1-.6-2.2-1.7-3.2-.9-1.1-2-1.8-3.3-1.9-1.9-.2-3.7 1-5.1 3.1-1.7 1.8-3 4.3-3 6.9v.3c-.9 1.7-1.7 3.8-2.1 6.5-.3 2.3-.3 5.1.3 8.3 0 .2.1.5.2.7-.5 2.2-.8 4.9 0 7.9.2.9.5 1.8.7 2.8.4 1.5.9 3.1 1.4 4.6l.2.5c.2.6.4 1.1.6 1.6 1.1 3.3 2.2 6.6 3 7.6 0 0-.6 3.2-.5 6.3.1 1.7.3 3 .4 3.8 0 .1.1.3.1.4l-1.3 2.4c-.2.4-.1.9.3 1.1.1.1.2.1.3.1.1 0 .3 0 .4-.1-.1.3.1.7.4.8.1.1.2.1.3.1.3 0 .5-.1.7-.3 0 .3.1.6.4.7.1.1.2.1.3.1.3 0 .6-.1.7-.4l.1-.2c-.2.3 0 .8.3 1 .1.1.2.1.4.1.3 0 .6-.1.7-.4l1.8-2.5.9-3-.4-2.6-.5-2.9-.5-3.2c-.1-.5-.2-1.6-.4-2.9-.2-1.6-.6-3.6-1-5.8-.1-.5-.2-1.3-.3-1.9-1-5.1-2.2-10.9-3.7-15 .6-.9 1.5-2.8 2.5-5"/><path fill="#9CD68E" d="M56.1 109.8l-1.2-.2v.2h1.2z"/><path fill="#114A1A" d="M62.3 43.4l-2.6-.2c-4.8-.4-8.5 2.7-8.6 7.9-.2 2.3 2.1 5.7 2 7.2h.9l.5-1 .4-.8.3-.3c.1-.1.2-.3.3-.4.5-.7 1.1-1.7 1.2-2.1 0-.4.2-.8.5-1.2.3-.4.7-.7 1.3-.6 1.4.1 1.8 1.9 1.8 1.9l.8.1s0-1.5 1.5-2.5c1.3-.8 2.1-.2 2.5-2.7 0-.2.1-.5.1-.8h.8s1.9.2 1.6 4.2l.3-1.2c.9-2.2-1.2-7.1-5.6-7.5"/><path fill="#114A1A" d="M35.9 196.1c-.8 0-3.4-.2-6-1.9-.5-1.7-.9-4.2-2.3-4.9-.4-.2-.7-.2-1-.2-1 .1-1.8 1-3.5 0-1.7-.9 0-2.4-1.9-3.3-.3-.1-.6 0-1 .2-1.9 1.1-5 5.7-4.1 8.8l5 2.7c-.4-.2 2 .1 2.7.5.1.1.2.1.2.2.7.2 2 1.8 4.8 1.8H35c6-1 3.7-4.1.9-3.9zM63.5 109.4l2.3-25.7-3.8-8.8c-.5-1.6-1.1-3.2-1.9-4.5-1.2-1.9-2.8-3.3-5.2-3.3-4.9 0-7.8 6.4-9.2 10.8-.3 1-.5 2.1-.5 3.3-.2 1.5-.2 2.7-.2 3.8.4-2.7 1.2-4.9 2.1-6.5v-.3c0-2.6 1.3-5.1 3-6.9 1.4-2 3.2-3.3 5.1-3.1 1.3.1 2.4.8 3.3 1.9 1.1 1 1.6 2.1 1.7 3.2.6 1.8.8 3.9.6 6.2-.5 5.7-1.8 10.4-7 10.2-1 2.2-2 4.1-2.7 5.1 1.4 4.2 2.7 10 3.7 15.1.1.6.2 1.3.3 1.8.4 2.2.7 4.1 1 5.7.2 1.3.4 2.7.4 2.7l.5 3.3.5 3 .4 2.6-.9 3-1.8 2.6c-.2.3-.4.4-.7.4-.1 0-.2 0-.4-.1-.3-.2-.4-.6-.3-1l-.1.2c-.2.3-.5.4-.7.4-.1 0-.2 0-.3-.1-.3-.2-.4-.5-.4-.7-.2.2-.4.4-.7.3-.1 0-.2 0-.3-.1-.3-.2-.4-.5-.4-.8-.1.1-.3.1-.4.1-.1 0-.2 0-.3-.1-.4-.2-.5-.7-.3-1.1l1.3-2.4c0-.1-.1-.2-.1-.4-.2-.8-.4-2.1-.4-3.8-.1-3.1.5-6.3.5-6.3-.8-1-1.9-4.3-3-7.6l-.6-1.8-.2-.6c-.5-1-1-3-1.4-4.5-.5 1.6-1.2 3-1.8 4.4 0 0-.3.2-.8.8-.3.4-.8 1-1.2 1.9-.7 1.3-1.5 3.3-2.2 6-2.2 8.4.7 16.1-1.6 23l3.2.3 14.5 1.2 1.2.1s1.5-3 2-6.3c.3-1.7.9-3.1 1.6-4.6l13.8-4.6.3-3.2 1.4-17.4v-.2l-12.9 3.4zm-1.6.4h-.1.4-.3zM129.1 119l-5.5-1-6 39H105c6-1 3.7-4.2.9-4-.9 0-4.1-.4-7.1-2.7-1.4-1.1-3.1-3.7-4.9-3.8h-.1c-1.8 0-1.5 2-4 2-1.9 0-1.2-2-3.1-2-.1 0-.1.1-.2.1-1.6.1-3 7.4-.2 10.4H83v4.3L81.1 200h4.6l.5-11h33.2l.4 11h4.6l-1.7-41.3 6.4-39.7zm-34.4 37.2c.8 0 1.5.8 2.3.8h-4.9c-.5 0 1.8-.8 2.6-.8zM86.3 187l1.2-24h30.8l1 24h-33z"/></svg>