<svg xmlns="http://www.w3.org/2000/svg" width="200" height="200" viewBox="0 40 200 200" preserveAspectRatio="xMidYMax meet"><path fill="#114A1A" d="M107.5 101.8c.1-4 1.9-4 1.9-4l.8.1v.8c.2 2.5 1 1.8 2.3 2.7 1.4 1 1.3 2.4 1.3 2.4h.8s.5-1.6 1.9-1.6c.5 0 .9.4 1.2.8.2.4.4.9.4 1.3 0 .5.5 1.5 1 2.2.1.2.2.4.3.5l.2.4.3.9.4 1h.9c0-1.5 2.6-4.7 2.6-7v.1c.3-5.2-3.1-8.5-7.9-8.5h-2.6c-4.4 0-6.9 4.5-6 6.7l.2 1.2zM167.4 118.4l-6 38.8h-34.3v9s-.2 0-.3.1L125 200h4.6l.5-10.5h33.1l.4 10.5h4.6l-1.7-41.2 6.3-39.6-5.4-.8zm-37.1 68.8l1.2-24.8h30.7l1 24.8h-32.9zM48.8 191.7c-1.1-.4-1.8.9-3-.2-1.7-1.5-.6-2.7-1.4-3.8-.1-.1-.2-.3-.3-.4-1.3-1.2-4.4-.4-6.2-.5-3.8-.2-6.4-2.1-7-2.7-2-1.9-5.9-1-1.9 3.5l2.8 2.5s2.6 2.3 3.2 2.9c.6.5 1.6.3 2.3.9.6.6 1.8 2.7 1.4 2.4l4.2 3.8c3.9-.2 7.9-6.7 6.7-7.8-.4-.4-.6-.5-.8-.6zM125.8 133.1c.1-.6.2-1.2.3-1.7-.8-.2-1.6-.5-2.4-.7-1.4 5.2-4.9 8.8-8.2 8.2-5.5-1-5.5-5.9-4.4-11.8 1.1-5.8 4.9-10 8.4-9.3.2 0 .4.1.5.1.3.1.5.2.7.3.1.1.2.1.3.2h.2c.5 0 1.1.1 1.6.2-.7-.8-1.6-1.4-2.7-1.7-.9-.3-1.8-.3-2.6-.1-1.1.2-2.2.8-3.1 1.6-.5.5-1 1-1.5 1.6-2.4 2.5-4.5 5.2-4.5 5.2l-3.2 4.6-3.7 22.9s-.8.2-6.4.1c-1.7 0-3.1-.1-4.7-.1H83c-3.3.1-6.4.7-6.4.7l.3 14 .1 4c5.3-.1 11.5 1.6 20.4 2.5 16.3 1.8 20.7-8.8 20.7-8.8.5-3.1 1.7-10 2.4-14.1 1.5-6.5 3.4-7.8 5.3-17.9zM172.9 119.2z"/><path fill="#8DCF83" d="M62.4 157c-.8.2-.5.4-.6.6-3 4-8.1 14.4-17.4 30 .7 1.1-.4 2.3 1.3 3.8 1.2 1.1 1.9-.2 3 .2 3-3.9 9.2-8.1 12.9-12.4 5.5-6.3 4.8-8.4 5.4-14l.9.3c3.2.8 6.2 1.4 9.1 1.9l-.2-14c-7.4 1-12.9 2.5-14.4 3.6zM142.1 128.6l-.1-.1-.3-.3c-5.8-4.6-10-6.8-13.1-7.8-1.4-.8-3-1.4-4.8-1.8-.8-2-1.7-3.7-2.5-5.1l-.6-2c0-1.2.1-1.9.2-2.3h-.5l-.4-1-.3-.9s-.1-.1-.2-.4c-.1-.1-.2-.3-.3-.5-.4-.7-1-1.7-1-2.2 0-.4-.1-.9-.4-1.2-.3-.4-.7-.9-1.2-.9-1.4 0-1.9 1.6-1.9 1.6h-.8s.1-1.4-1.3-2.4c-1.3-.9-2.1-.3-2.3-2.8v-.8h-.8s-1.9 0-1.9 4v1.4c.1 1.9-.8 3-1 3.3-.2.3-.5 1.1.6 1.1s.4.6.4.6.1 1 .5.9c0 0-.4.3 0 .8s.1.3.1 1.5.2 1.4 1.2 1.5c1 .1 2.9.4 2.9.4l.1 3-.2 1.5-6.9 12.1 3.2-4.6s2.2-2.7 4.5-5.2c.5-.6 1-1.1 1.5-1.6.9-.8 2-1.4 3.1-1.6.8-.2 1.7-.2 2.6.1 1.1.3 1.9.9 2.7 1.7-.5-.1-1.1-.1-1.6-.2h-.2c-.1-.1-.2-.1-.3-.2l-.7-.3c-.2-.1-.4-.1-.5-.1-3.6-.7-7.3 3.5-8.4 9.3-1.1 5.8-1.1 10.7 4.4 11.8 3.3.6 6.8-3 8.2-8.2.7.2 1.5.5 2.4.7 2.6.7 5.5 1.4 8 1.7-5.7 8.2-10.2 23.5-10.2 23.5v.4c0 1.1 1.2 8 1.5 8.9.2.6 1 .5 1.3.4.1 0 .3-.1.3-.1v-9h2.5c.9 0 1-.2 1-1.2 0-.9-1.3-2.2-.5-4.6 2.9-6.2 5.1-7.5 9.3-11.9 6-6.1 3.5-9.8 2.7-10.9z"/></svg>